<svg width="140" height="140" viewBox="0 0 140 140" fill="none" xmlns="http://www.w3.org/2000/svg">
<g clip-path="url(#clip0_2_6411)">
<path d="M113.75 140H26.25C11.7513 140 0 128.249 0 113.75V26.25C0 11.7513 11.7513 0 26.25 0H113.75C128.249 0 140 11.7513 140 26.25V113.75C140 128.249 128.249 140 113.75 140Z" fill="#EFF3FA"/>
<path d="M70 82C69.3851 82 68.7971 81.754 68.3742 81.3206L52.626 65.2134C51.2611 63.8194 52.275 61.5 54.2518 61.5H62.5008V44.6607C62.5008 42.6429 64.1837 41 66.2504 41H73.7496C75.8163 41 77.4992 42.6429 77.4992 44.6607V61.5H85.7482C87.725 61.5 88.7389 63.8194 87.374 65.2134L71.6258 81.3206C71.2029 81.754 70.6149 82 70 82Z" fill="#008DF2"/>
<path d="M99.8958 99H40.1042C37.2896 99 35 96.8412 35 94.1875V92.8125C35 90.1588 37.2896 88 40.1042 88H99.8958C102.71 88 105 90.1588 105 92.8125V94.1875C105 96.8412 102.71 99 99.8958 99Z" fill="#008DF2"/>
</g>
<defs>
<clipPath id="clip0_2_6411">
<rect width="140" height="140" fill="white"/>
</clipPath>
</defs>
</svg>
