<svg width="261" height="176" viewBox="0 0 261 176" fill="none" xmlns="http://www.w3.org/2000/svg">
<rect x="0.5" y="0.5" width="260" height="175" rx="14.5" fill="#EFF3FA"/>
<path d="M99.9219 117.578H103.477C104.997 117.578 106.148 117.792 106.93 118.219C107.711 118.646 108.102 119.396 108.102 120.469C108.102 120.901 108.031 121.292 107.891 121.641C107.755 121.99 107.557 122.276 107.297 122.5C107.036 122.724 106.719 122.87 106.344 122.938V123.016C106.724 123.094 107.068 123.229 107.375 123.422C107.682 123.609 107.927 123.885 108.109 124.25C108.297 124.609 108.391 125.089 108.391 125.688C108.391 126.38 108.221 126.974 107.883 127.469C107.544 127.964 107.06 128.344 106.43 128.609C105.805 128.87 105.06 129 104.195 129H99.9219V117.578ZM102.344 122.102H103.75C104.453 122.102 104.94 121.992 105.211 121.773C105.482 121.549 105.617 121.221 105.617 120.789C105.617 120.352 105.456 120.039 105.133 119.852C104.815 119.659 104.31 119.562 103.617 119.562H102.344V122.102ZM102.344 124.023V127H103.922C104.651 127 105.159 126.859 105.445 126.578C105.732 126.297 105.875 125.919 105.875 125.445C105.875 125.164 105.812 124.917 105.688 124.703C105.562 124.49 105.352 124.323 105.055 124.203C104.763 124.083 104.359 124.023 103.844 124.023H102.344ZM115.359 120.102C115.479 120.102 115.617 120.109 115.773 120.125C115.935 120.135 116.065 120.151 116.164 120.172L115.984 122.406C115.906 122.38 115.794 122.362 115.648 122.352C115.508 122.336 115.385 122.328 115.281 122.328C114.974 122.328 114.674 122.367 114.383 122.445C114.096 122.523 113.839 122.651 113.609 122.828C113.38 123 113.198 123.229 113.062 123.516C112.932 123.797 112.867 124.143 112.867 124.555V129H110.484V120.266H112.289L112.641 121.734H112.758C112.93 121.438 113.143 121.167 113.398 120.922C113.659 120.672 113.953 120.474 114.281 120.328C114.615 120.177 114.974 120.102 115.359 120.102ZM125.688 124.617C125.688 125.346 125.589 125.992 125.391 126.555C125.198 127.117 124.914 127.594 124.539 127.984C124.169 128.37 123.721 128.661 123.195 128.859C122.674 129.057 122.086 129.156 121.43 129.156C120.815 129.156 120.25 129.057 119.734 128.859C119.224 128.661 118.779 128.37 118.398 127.984C118.023 127.594 117.732 127.117 117.523 126.555C117.32 125.992 117.219 125.346 117.219 124.617C117.219 123.648 117.391 122.828 117.734 122.156C118.078 121.484 118.568 120.974 119.203 120.625C119.839 120.276 120.596 120.102 121.477 120.102C122.294 120.102 123.018 120.276 123.648 120.625C124.284 120.974 124.781 121.484 125.141 122.156C125.505 122.828 125.688 123.648 125.688 124.617ZM119.648 124.617C119.648 125.19 119.711 125.672 119.836 126.062C119.961 126.453 120.156 126.747 120.422 126.945C120.688 127.143 121.034 127.242 121.461 127.242C121.883 127.242 122.224 127.143 122.484 126.945C122.75 126.747 122.943 126.453 123.062 126.062C123.188 125.672 123.25 125.19 123.25 124.617C123.25 124.039 123.188 123.56 123.062 123.18C122.943 122.794 122.75 122.505 122.484 122.312C122.219 122.12 121.872 122.023 121.445 122.023C120.815 122.023 120.357 122.24 120.07 122.672C119.789 123.104 119.648 123.753 119.648 124.617ZM134.836 129L134.164 125.945C134.128 125.763 134.068 125.495 133.984 125.141C133.901 124.781 133.81 124.398 133.711 123.992C133.617 123.581 133.529 123.201 133.445 122.852C133.367 122.503 133.31 122.247 133.273 122.086H133.203C133.167 122.247 133.109 122.503 133.031 122.852C132.953 123.201 132.865 123.581 132.766 123.992C132.672 124.404 132.583 124.792 132.5 125.156C132.417 125.516 132.354 125.789 132.312 125.977L131.609 129H129.047L126.562 120.266H128.938L129.945 124.133C130.013 124.404 130.078 124.727 130.141 125.102C130.203 125.471 130.258 125.831 130.305 126.18C130.357 126.523 130.396 126.797 130.422 127H130.484C130.495 126.849 130.516 126.648 130.547 126.398C130.583 126.148 130.622 125.891 130.664 125.625C130.711 125.354 130.753 125.112 130.789 124.898C130.831 124.68 130.862 124.531 130.883 124.453L131.961 120.266H134.586L135.609 124.453C135.646 124.604 135.693 124.844 135.75 125.172C135.812 125.5 135.867 125.839 135.914 126.188C135.961 126.531 135.987 126.802 135.992 127H136.055C136.076 126.823 136.112 126.56 136.164 126.211C136.216 125.862 136.276 125.497 136.344 125.117C136.417 124.732 136.49 124.404 136.562 124.133L137.609 120.266H139.945L137.43 129H134.836ZM147.453 126.406C147.453 127 147.312 127.503 147.031 127.914C146.755 128.32 146.341 128.63 145.789 128.844C145.237 129.052 144.549 129.156 143.727 129.156C143.117 129.156 142.594 129.117 142.156 129.039C141.724 128.961 141.286 128.831 140.844 128.648V126.68C141.318 126.893 141.826 127.07 142.367 127.211C142.914 127.346 143.393 127.414 143.805 127.414C144.268 127.414 144.599 127.346 144.797 127.211C145 127.07 145.102 126.888 145.102 126.664C145.102 126.518 145.06 126.388 144.977 126.273C144.898 126.154 144.727 126.021 144.461 125.875C144.195 125.724 143.779 125.529 143.211 125.289C142.664 125.06 142.214 124.828 141.859 124.594C141.51 124.359 141.25 124.083 141.078 123.766C140.911 123.443 140.828 123.034 140.828 122.539C140.828 121.732 141.141 121.125 141.766 120.719C142.396 120.307 143.237 120.102 144.289 120.102C144.831 120.102 145.346 120.156 145.836 120.266C146.331 120.375 146.839 120.549 147.359 120.789L146.641 122.508C146.208 122.32 145.799 122.167 145.414 122.047C145.034 121.927 144.646 121.867 144.25 121.867C143.901 121.867 143.638 121.914 143.461 122.008C143.284 122.102 143.195 122.245 143.195 122.438C143.195 122.578 143.24 122.703 143.328 122.812C143.422 122.922 143.599 123.044 143.859 123.18C144.125 123.31 144.513 123.479 145.023 123.688C145.518 123.891 145.948 124.104 146.312 124.328C146.677 124.547 146.958 124.82 147.156 125.148C147.354 125.471 147.453 125.891 147.453 126.406ZM152.914 120.102C153.721 120.102 154.417 120.258 155 120.57C155.583 120.878 156.034 121.326 156.352 121.914C156.669 122.503 156.828 123.221 156.828 124.07V125.227H151.195C151.221 125.898 151.422 126.427 151.797 126.812C152.177 127.193 152.703 127.383 153.375 127.383C153.932 127.383 154.443 127.326 154.906 127.211C155.37 127.096 155.846 126.924 156.336 126.695V128.539C155.904 128.753 155.451 128.909 154.977 129.008C154.508 129.107 153.938 129.156 153.266 129.156C152.391 129.156 151.615 128.995 150.938 128.672C150.266 128.349 149.737 127.857 149.352 127.195C148.971 126.534 148.781 125.701 148.781 124.695C148.781 123.674 148.953 122.826 149.297 122.148C149.646 121.466 150.13 120.956 150.75 120.617C151.37 120.273 152.091 120.102 152.914 120.102ZM152.93 121.797C152.466 121.797 152.081 121.945 151.773 122.242C151.471 122.539 151.297 123.005 151.25 123.641H154.594C154.589 123.286 154.523 122.971 154.398 122.695C154.279 122.419 154.096 122.201 153.852 122.039C153.612 121.878 153.305 121.797 152.93 121.797Z" fill="#008DF2"/>
<path d="M97 133H159" stroke="#008DF2" stroke-width="2"/>
<path d="M111.686 41.7486L111.686 41.7486L111.69 41.7442C112.482 40.9347 113.552 40.5 114.69 40.5H118.974V40H123.258V40.5H131.827V40H136.111V40.5H144.679V40H148.963V40.5H153.247C155.589 40.5 157.495 42.3876 157.5 44.7468V49.0308H158V53.3157H157.5V61.8856H158V66.1706H157.5V74.7405H158V79.0254H157.5V83.3103C157.5 84.4181 157.046 85.4945 156.249 86.3157C156.248 86.3165 156.247 86.3173 156.246 86.3181L152.27 90.2926L152.624 90.6462L148.643 94.6258L148.29 94.2722L144.309 98.2518C143.512 99.0481 142.438 99.5 141.305 99.5H137.018V100H132.732V99.5H124.159V100H119.873V99.5H111.3V100H107.013V99.5H102.727C100.389 99.5 98.5 97.5962 98.5 95.2542V90.9692H98V86.6843H98.5V78.1144H98V73.8294H98.5V65.2595H98V60.9746H98.5V56.6897C98.5 55.5506 98.9361 54.4736 99.7231 53.6869L103.71 49.7077L103.357 49.3538L107.345 45.3742L107.698 45.7281L111.686 41.7486ZM137.828 72.7867H131.019V73.2867H124.211C122.146 73.2867 120.469 74.9634 120.469 77.0268V80.642H119.969V84.2571H120.469V87.8723C120.469 88.079 120.408 88.2719 120.308 88.434L119.883 88.1708C119.828 88.2593 119.75 88.334 119.657 88.386L119.902 88.8221C119.741 88.9121 119.555 88.9649 119.356 88.9649H117.337V88.4649H115.319V88.9649H113.3C113.101 88.9649 112.914 88.9116 112.753 88.8184L113.004 88.3859C112.913 88.3334 112.839 88.2579 112.787 88.1685L112.354 88.4188C112.261 88.2571 112.207 88.0694 112.207 87.8723V84.2554H112.707V80.6386H112.207V77.0217C112.207 74.8364 112.793 72.786 113.815 71.0201L114.248 71.2706C115.258 69.5258 116.714 68.0708 118.459 67.0612L118.209 66.6284C119.975 65.6069 122.025 65.0224 124.211 65.0224H131.021V65.5224H137.831V65.0224H144.642C144.836 65.0224 145.022 65.0708 145.185 65.1623L144.941 65.5984C145.032 65.6497 145.107 65.7246 145.158 65.8161L145.594 65.5713C145.686 65.7345 145.734 65.9207 145.734 66.1149V68.1413H145.234V70.1677H145.734V72.1941V72.6941H145.608C145.429 73.04 145.071 73.2867 144.637 73.2867H137.828V72.7867ZM139.414 60H134.191V60.5H123.746V60H118.523V60.5H113.3C113.101 60.5 112.914 60.4467 112.753 60.3535L113.004 59.921C112.913 59.8685 112.839 59.793 112.787 59.7036L112.354 59.9539C112.261 59.7922 112.207 59.6045 112.207 59.4074V57.3827H112.707V55.358H112.207V53.3333C112.207 53.1391 112.256 52.9529 112.348 52.7897L112.784 53.0344C112.835 52.943 112.91 52.8681 113.001 52.8168L112.757 52.3807C112.92 52.2892 113.106 52.2407 113.3 52.2407H118.524V52.7407H123.747V52.2407H134.195V52.7407H139.418V52.2407H144.642C144.836 52.2407 145.022 52.2892 145.185 52.3807L144.941 52.8168C145.032 52.8681 145.107 52.943 145.158 53.0344L145.594 52.7897C145.686 52.9529 145.734 53.1391 145.734 53.3333V55.358H145.234V57.3827H145.734V59.4074V59.9074H145.608C145.429 60.2532 145.071 60.5 144.637 60.5H139.414V60Z" stroke="#8C8D94" stroke-dasharray="10 5"/>
<rect x="0.5" y="0.5" width="260" height="175" rx="14.5" stroke="#A6A8AE" stroke-dasharray="10 10"/>
</svg>
