<svg width="570" height="240" viewBox="0 0 570 240" fill="none" xmlns="http://www.w3.org/2000/svg">
<rect x="0.5" y="0.5" width="569" height="239" rx="14.5" fill="#EFF3FA"/>
<path d="M160.607 130.725C160.607 132.333 160.314 133.677 159.729 134.758C159.143 135.832 158.293 136.643 157.18 137.189C156.073 137.73 154.729 138 153.146 138H149.27V123.723H153.576C155.028 123.723 156.278 123.99 157.326 124.523C158.374 125.051 159.182 125.835 159.748 126.877C160.321 127.912 160.607 129.195 160.607 130.725ZM158.859 130.783C158.859 129.501 158.645 128.443 158.215 127.609C157.792 126.776 157.167 126.158 156.34 125.754C155.52 125.344 154.514 125.139 153.322 125.139H150.93V136.574H152.951C154.917 136.574 156.392 136.089 157.375 135.119C158.365 134.149 158.859 132.704 158.859 130.783ZM168.4 127.102C168.615 127.102 168.84 127.115 169.074 127.141C169.309 127.16 169.517 127.189 169.699 127.229L169.494 128.732C169.318 128.687 169.123 128.651 168.908 128.625C168.693 128.599 168.492 128.586 168.303 128.586C167.873 128.586 167.466 128.674 167.082 128.85C166.704 129.019 166.372 129.266 166.086 129.592C165.799 129.911 165.575 130.298 165.412 130.754C165.249 131.203 165.168 131.704 165.168 132.258V138H163.537V127.297H164.885L165.061 129.27H165.129C165.35 128.872 165.617 128.511 165.93 128.186C166.242 127.854 166.604 127.59 167.014 127.395C167.43 127.199 167.893 127.102 168.4 127.102ZM175.725 127.121C177.001 127.121 177.948 127.408 178.566 127.98C179.185 128.553 179.494 129.468 179.494 130.725V138H178.312L178 136.418H177.922C177.622 136.809 177.31 137.137 176.984 137.404C176.659 137.665 176.281 137.863 175.852 138C175.428 138.13 174.908 138.195 174.289 138.195C173.638 138.195 173.059 138.081 172.551 137.854C172.049 137.626 171.652 137.281 171.359 136.818C171.073 136.356 170.93 135.77 170.93 135.061C170.93 133.993 171.353 133.173 172.199 132.6C173.046 132.027 174.335 131.714 176.066 131.662L177.912 131.584V130.93C177.912 130.005 177.714 129.357 177.316 128.986C176.919 128.615 176.359 128.43 175.637 128.43C175.077 128.43 174.543 128.511 174.035 128.674C173.527 128.837 173.046 129.029 172.59 129.25L172.092 128.02C172.574 127.772 173.127 127.561 173.752 127.385C174.377 127.209 175.035 127.121 175.725 127.121ZM177.893 132.727L176.262 132.795C174.927 132.847 173.986 133.065 173.439 133.449C172.893 133.833 172.619 134.377 172.619 135.08C172.619 135.692 172.805 136.145 173.176 136.438C173.547 136.73 174.038 136.877 174.65 136.877C175.601 136.877 176.379 136.613 176.984 136.086C177.59 135.559 177.893 134.768 177.893 133.713V132.727ZM185.822 142.805C184.416 142.805 183.332 142.541 182.57 142.014C181.809 141.493 181.428 140.76 181.428 139.816C181.428 139.146 181.639 138.573 182.062 138.098C182.492 137.622 183.085 137.307 183.84 137.15C183.56 137.02 183.319 136.825 183.117 136.564C182.922 136.304 182.824 136.005 182.824 135.666C182.824 135.275 182.932 134.934 183.146 134.641C183.368 134.341 183.703 134.055 184.152 133.781C183.592 133.553 183.137 133.169 182.785 132.629C182.44 132.082 182.268 131.447 182.268 130.725C182.268 129.956 182.427 129.302 182.746 128.762C183.065 128.215 183.527 127.798 184.133 127.512C184.738 127.225 185.471 127.082 186.33 127.082C186.519 127.082 186.708 127.092 186.896 127.111C187.092 127.124 187.277 127.147 187.453 127.18C187.629 127.206 187.782 127.238 187.912 127.277H191.584V128.322L189.611 128.566C189.807 128.82 189.969 129.126 190.1 129.484C190.23 129.842 190.295 130.24 190.295 130.676C190.295 131.743 189.934 132.593 189.211 133.225C188.488 133.85 187.495 134.162 186.232 134.162C185.933 134.162 185.627 134.136 185.314 134.084C184.995 134.26 184.751 134.455 184.582 134.67C184.419 134.885 184.338 135.132 184.338 135.412C184.338 135.62 184.4 135.786 184.523 135.91C184.654 136.034 184.839 136.125 185.08 136.184C185.321 136.236 185.611 136.262 185.949 136.262H187.834C188.999 136.262 189.891 136.506 190.51 136.994C191.135 137.482 191.447 138.195 191.447 139.133C191.447 140.318 190.965 141.226 190.002 141.857C189.038 142.489 187.645 142.805 185.822 142.805ZM185.871 141.535C186.757 141.535 187.489 141.444 188.068 141.262C188.654 141.086 189.09 140.829 189.377 140.49C189.67 140.158 189.816 139.761 189.816 139.299C189.816 138.869 189.719 138.544 189.523 138.322C189.328 138.107 189.042 137.964 188.664 137.893C188.286 137.814 187.824 137.775 187.277 137.775H185.422C184.94 137.775 184.52 137.85 184.162 138C183.804 138.15 183.527 138.371 183.332 138.664C183.143 138.957 183.049 139.322 183.049 139.758C183.049 140.337 183.293 140.777 183.781 141.076C184.27 141.382 184.966 141.535 185.871 141.535ZM186.291 132.98C187.066 132.98 187.648 132.785 188.039 132.395C188.43 132.004 188.625 131.434 188.625 130.686C188.625 129.885 188.426 129.286 188.029 128.889C187.632 128.485 187.046 128.283 186.271 128.283C185.529 128.283 184.956 128.492 184.553 128.908C184.156 129.318 183.957 129.921 183.957 130.715C183.957 131.444 184.159 132.004 184.562 132.395C184.966 132.785 185.542 132.98 186.291 132.98ZM202.893 127.121C204.169 127.121 205.116 127.408 205.734 127.98C206.353 128.553 206.662 129.468 206.662 130.725V138H205.48L205.168 136.418H205.09C204.79 136.809 204.478 137.137 204.152 137.404C203.827 137.665 203.449 137.863 203.02 138C202.596 138.13 202.076 138.195 201.457 138.195C200.806 138.195 200.227 138.081 199.719 137.854C199.217 137.626 198.82 137.281 198.527 136.818C198.241 136.356 198.098 135.77 198.098 135.061C198.098 133.993 198.521 133.173 199.367 132.6C200.214 132.027 201.503 131.714 203.234 131.662L205.08 131.584V130.93C205.08 130.005 204.882 129.357 204.484 128.986C204.087 128.615 203.527 128.43 202.805 128.43C202.245 128.43 201.711 128.511 201.203 128.674C200.695 128.837 200.214 129.029 199.758 129.25L199.26 128.02C199.742 127.772 200.295 127.561 200.92 127.385C201.545 127.209 202.202 127.121 202.893 127.121ZM205.061 132.727L203.43 132.795C202.095 132.847 201.154 133.065 200.607 133.449C200.061 133.833 199.787 134.377 199.787 135.08C199.787 135.692 199.973 136.145 200.344 136.438C200.715 136.73 201.206 136.877 201.818 136.877C202.769 136.877 203.547 136.613 204.152 136.086C204.758 135.559 205.061 134.768 205.061 133.713V132.727ZM215.07 127.102C216.34 127.102 217.3 127.414 217.951 128.039C218.602 128.658 218.928 129.654 218.928 131.027V138H217.326V131.135C217.326 130.243 217.121 129.576 216.711 129.133C216.307 128.69 215.686 128.469 214.846 128.469C213.661 128.469 212.827 128.804 212.346 129.475C211.864 130.145 211.623 131.118 211.623 132.395V138H210.002V127.297H211.311L211.555 128.84H211.643C211.87 128.462 212.16 128.146 212.512 127.893C212.863 127.632 213.257 127.437 213.693 127.307C214.13 127.17 214.589 127.102 215.07 127.102ZM226.076 138.195C224.722 138.195 223.648 137.733 222.854 136.809C222.066 135.884 221.672 134.51 221.672 132.688C221.672 130.845 222.076 129.455 222.883 128.518C223.69 127.574 224.764 127.102 226.105 127.102C226.672 127.102 227.167 127.176 227.59 127.326C228.013 127.476 228.378 127.678 228.684 127.932C228.99 128.179 229.247 128.462 229.455 128.781H229.572C229.546 128.579 229.52 128.303 229.494 127.951C229.468 127.6 229.455 127.313 229.455 127.092V122.805H231.076V138H229.768L229.523 136.477H229.455C229.253 136.796 228.996 137.085 228.684 137.346C228.378 137.606 228.01 137.814 227.58 137.971C227.157 138.12 226.656 138.195 226.076 138.195ZM226.33 136.848C227.476 136.848 228.286 136.522 228.762 135.871C229.237 135.22 229.475 134.253 229.475 132.971V132.678C229.475 131.317 229.247 130.272 228.791 129.543C228.342 128.814 227.521 128.449 226.33 128.449C225.334 128.449 224.589 128.833 224.094 129.602C223.599 130.363 223.352 131.405 223.352 132.727C223.352 134.042 223.596 135.057 224.084 135.773C224.579 136.49 225.327 136.848 226.33 136.848ZM243.518 138.195C242.163 138.195 241.089 137.733 240.295 136.809C239.507 135.884 239.113 134.51 239.113 132.688C239.113 130.845 239.517 129.455 240.324 128.518C241.132 127.574 242.206 127.102 243.547 127.102C244.113 127.102 244.608 127.176 245.031 127.326C245.454 127.476 245.819 127.678 246.125 127.932C246.431 128.179 246.688 128.462 246.896 128.781H247.014C246.988 128.579 246.962 128.303 246.936 127.951C246.91 127.6 246.896 127.313 246.896 127.092V122.805H248.518V138H247.209L246.965 136.477H246.896C246.695 136.796 246.438 137.085 246.125 137.346C245.819 137.606 245.451 137.814 245.021 137.971C244.598 138.12 244.097 138.195 243.518 138.195ZM243.771 136.848C244.917 136.848 245.728 136.522 246.203 135.871C246.678 135.22 246.916 134.253 246.916 132.971V132.678C246.916 131.317 246.688 130.272 246.232 129.543C245.783 128.814 244.963 128.449 243.771 128.449C242.775 128.449 242.03 128.833 241.535 129.602C241.04 130.363 240.793 131.405 240.793 132.727C240.793 134.042 241.037 135.057 241.525 135.773C242.02 136.49 242.769 136.848 243.771 136.848ZM256.818 127.102C257.033 127.102 257.258 127.115 257.492 127.141C257.727 127.16 257.935 127.189 258.117 127.229L257.912 128.732C257.736 128.687 257.541 128.651 257.326 128.625C257.111 128.599 256.91 128.586 256.721 128.586C256.291 128.586 255.884 128.674 255.5 128.85C255.122 129.019 254.79 129.266 254.504 129.592C254.217 129.911 253.993 130.298 253.83 130.754C253.667 131.203 253.586 131.704 253.586 132.258V138H251.955V127.297H253.303L253.479 129.27H253.547C253.768 128.872 254.035 128.511 254.348 128.186C254.66 127.854 255.021 127.59 255.432 127.395C255.848 127.199 256.311 127.102 256.818 127.102ZM269.367 132.629C269.367 133.508 269.253 134.292 269.025 134.982C268.798 135.673 268.469 136.255 268.039 136.73C267.609 137.206 267.089 137.57 266.477 137.824C265.871 138.072 265.184 138.195 264.416 138.195C263.7 138.195 263.042 138.072 262.443 137.824C261.851 137.57 261.337 137.206 260.9 136.73C260.471 136.255 260.135 135.673 259.895 134.982C259.66 134.292 259.543 133.508 259.543 132.629C259.543 131.457 259.742 130.461 260.139 129.641C260.536 128.814 261.102 128.186 261.838 127.756C262.58 127.32 263.462 127.102 264.484 127.102C265.461 127.102 266.314 127.32 267.043 127.756C267.779 128.192 268.348 128.824 268.752 129.65C269.162 130.471 269.367 131.464 269.367 132.629ZM261.223 132.629C261.223 133.488 261.337 134.234 261.564 134.865C261.792 135.497 262.144 135.985 262.619 136.33C263.094 136.675 263.706 136.848 264.455 136.848C265.197 136.848 265.806 136.675 266.281 136.33C266.763 135.985 267.118 135.497 267.346 134.865C267.574 134.234 267.688 133.488 267.688 132.629C267.688 131.776 267.574 131.04 267.346 130.422C267.118 129.797 266.766 129.315 266.291 128.977C265.816 128.638 265.201 128.469 264.445 128.469C263.332 128.469 262.515 128.837 261.994 129.572C261.48 130.308 261.223 131.327 261.223 132.629ZM277.199 127.102C278.534 127.102 279.598 127.561 280.393 128.479C281.187 129.396 281.584 130.777 281.584 132.619C281.584 133.837 281.402 134.859 281.037 135.686C280.673 136.512 280.158 137.137 279.494 137.561C278.837 137.984 278.059 138.195 277.16 138.195C276.594 138.195 276.096 138.12 275.666 137.971C275.236 137.821 274.868 137.619 274.562 137.365C274.257 137.111 274.003 136.835 273.801 136.535H273.684C273.703 136.789 273.726 137.095 273.752 137.453C273.785 137.811 273.801 138.124 273.801 138.391V142.785H272.17V127.297H273.508L273.723 128.879H273.801C274.009 128.553 274.263 128.257 274.562 127.99C274.862 127.717 275.227 127.502 275.656 127.346C276.092 127.183 276.607 127.102 277.199 127.102ZM276.916 128.469C276.174 128.469 275.575 128.612 275.119 128.898C274.67 129.185 274.341 129.615 274.133 130.188C273.924 130.754 273.814 131.467 273.801 132.326V132.639C273.801 133.544 273.898 134.309 274.094 134.934C274.296 135.559 274.624 136.034 275.08 136.359C275.542 136.685 276.161 136.848 276.936 136.848C277.6 136.848 278.153 136.669 278.596 136.311C279.038 135.952 279.367 135.454 279.582 134.816C279.803 134.172 279.914 133.433 279.914 132.6C279.914 131.337 279.667 130.334 279.172 129.592C278.684 128.843 277.932 128.469 276.916 128.469ZM287.922 127.297H289.66L292.023 133.508C292.16 133.872 292.287 134.224 292.404 134.562C292.521 134.895 292.626 135.214 292.717 135.52C292.808 135.826 292.88 136.122 292.932 136.408H293C293.091 136.083 293.221 135.656 293.391 135.129C293.56 134.595 293.742 134.051 293.938 133.498L296.174 127.297H297.922L293.264 139.572C293.016 140.23 292.727 140.803 292.395 141.291C292.069 141.779 291.672 142.154 291.203 142.414C290.734 142.681 290.168 142.814 289.504 142.814C289.198 142.814 288.928 142.795 288.693 142.756C288.459 142.723 288.257 142.684 288.088 142.639V141.34C288.231 141.372 288.404 141.402 288.605 141.428C288.814 141.454 289.029 141.467 289.25 141.467C289.654 141.467 290.002 141.389 290.295 141.232C290.594 141.083 290.852 140.861 291.066 140.568C291.281 140.275 291.467 139.927 291.623 139.523L292.209 138.02L287.922 127.297ZM308.859 132.629C308.859 133.508 308.745 134.292 308.518 134.982C308.29 135.673 307.961 136.255 307.531 136.73C307.102 137.206 306.581 137.57 305.969 137.824C305.363 138.072 304.676 138.195 303.908 138.195C303.192 138.195 302.535 138.072 301.936 137.824C301.343 137.57 300.829 137.206 300.393 136.73C299.963 136.255 299.628 135.673 299.387 134.982C299.152 134.292 299.035 133.508 299.035 132.629C299.035 131.457 299.234 130.461 299.631 129.641C300.028 128.814 300.594 128.186 301.33 127.756C302.072 127.32 302.954 127.102 303.977 127.102C304.953 127.102 305.806 127.32 306.535 127.756C307.271 128.192 307.84 128.824 308.244 129.65C308.654 130.471 308.859 131.464 308.859 132.629ZM300.715 132.629C300.715 133.488 300.829 134.234 301.057 134.865C301.285 135.497 301.636 135.985 302.111 136.33C302.587 136.675 303.199 136.848 303.947 136.848C304.689 136.848 305.298 136.675 305.773 136.33C306.255 135.985 306.61 135.497 306.838 134.865C307.066 134.234 307.18 133.488 307.18 132.629C307.18 131.776 307.066 131.04 306.838 130.422C306.61 129.797 306.258 129.315 305.783 128.977C305.308 128.638 304.693 128.469 303.938 128.469C302.824 128.469 302.007 128.837 301.486 129.572C300.972 130.308 300.715 131.327 300.715 132.629ZM320.5 127.297V138H319.172L318.938 136.496H318.85C318.628 136.867 318.342 137.18 317.99 137.434C317.639 137.688 317.242 137.876 316.799 138C316.363 138.13 315.897 138.195 315.402 138.195C314.556 138.195 313.846 138.059 313.273 137.785C312.701 137.512 312.268 137.089 311.975 136.516C311.688 135.943 311.545 135.207 311.545 134.309V127.297H313.186V134.191C313.186 135.083 313.387 135.751 313.791 136.193C314.195 136.63 314.81 136.848 315.637 136.848C316.431 136.848 317.062 136.698 317.531 136.398C318.007 136.099 318.348 135.66 318.557 135.08C318.765 134.494 318.869 133.778 318.869 132.932V127.297H320.5ZM328.791 127.102C329.006 127.102 329.23 127.115 329.465 127.141C329.699 127.16 329.908 127.189 330.09 127.229L329.885 128.732C329.709 128.687 329.514 128.651 329.299 128.625C329.084 128.599 328.882 128.586 328.693 128.586C328.264 128.586 327.857 128.674 327.473 128.85C327.095 129.019 326.763 129.266 326.477 129.592C326.19 129.911 325.965 130.298 325.803 130.754C325.64 131.203 325.559 131.704 325.559 132.258V138H323.928V127.297H325.275L325.451 129.27H325.52C325.741 128.872 326.008 128.511 326.32 128.186C326.633 127.854 326.994 127.59 327.404 127.395C327.821 127.199 328.283 127.102 328.791 127.102ZM338.938 138H337.307V122.805H338.938V138ZM351.594 132.629C351.594 133.508 351.48 134.292 351.252 134.982C351.024 135.673 350.695 136.255 350.266 136.73C349.836 137.206 349.315 137.57 348.703 137.824C348.098 138.072 347.411 138.195 346.643 138.195C345.926 138.195 345.269 138.072 344.67 137.824C344.077 137.57 343.563 137.206 343.127 136.73C342.697 136.255 342.362 135.673 342.121 134.982C341.887 134.292 341.77 133.508 341.77 132.629C341.77 131.457 341.968 130.461 342.365 129.641C342.762 128.814 343.329 128.186 344.064 127.756C344.807 127.32 345.689 127.102 346.711 127.102C347.688 127.102 348.54 127.32 349.27 127.756C350.005 128.192 350.575 128.824 350.979 129.65C351.389 130.471 351.594 131.464 351.594 132.629ZM343.449 132.629C343.449 133.488 343.563 134.234 343.791 134.865C344.019 135.497 344.37 135.985 344.846 136.33C345.321 136.675 345.933 136.848 346.682 136.848C347.424 136.848 348.033 136.675 348.508 136.33C348.99 135.985 349.344 135.497 349.572 134.865C349.8 134.234 349.914 133.488 349.914 132.629C349.914 131.776 349.8 131.04 349.572 130.422C349.344 129.797 348.993 129.315 348.518 128.977C348.042 128.638 347.427 128.469 346.672 128.469C345.559 128.469 344.742 128.837 344.221 129.572C343.706 130.308 343.449 131.327 343.449 132.629ZM357.385 142.805C355.979 142.805 354.895 142.541 354.133 142.014C353.371 141.493 352.99 140.76 352.99 139.816C352.99 139.146 353.202 138.573 353.625 138.098C354.055 137.622 354.647 137.307 355.402 137.15C355.122 137.02 354.882 136.825 354.68 136.564C354.484 136.304 354.387 136.005 354.387 135.666C354.387 135.275 354.494 134.934 354.709 134.641C354.93 134.341 355.266 134.055 355.715 133.781C355.155 133.553 354.699 133.169 354.348 132.629C354.003 132.082 353.83 131.447 353.83 130.725C353.83 129.956 353.99 129.302 354.309 128.762C354.628 128.215 355.09 127.798 355.695 127.512C356.301 127.225 357.033 127.082 357.893 127.082C358.081 127.082 358.27 127.092 358.459 127.111C358.654 127.124 358.84 127.147 359.016 127.18C359.191 127.206 359.344 127.238 359.475 127.277H363.146V128.322L361.174 128.566C361.369 128.82 361.532 129.126 361.662 129.484C361.792 129.842 361.857 130.24 361.857 130.676C361.857 131.743 361.496 132.593 360.773 133.225C360.051 133.85 359.058 134.162 357.795 134.162C357.495 134.162 357.189 134.136 356.877 134.084C356.558 134.26 356.314 134.455 356.145 134.67C355.982 134.885 355.9 135.132 355.9 135.412C355.9 135.62 355.962 135.786 356.086 135.91C356.216 136.034 356.402 136.125 356.643 136.184C356.883 136.236 357.173 136.262 357.512 136.262H359.396C360.562 136.262 361.454 136.506 362.072 136.994C362.697 137.482 363.01 138.195 363.01 139.133C363.01 140.318 362.528 141.226 361.564 141.857C360.601 142.489 359.208 142.805 357.385 142.805ZM357.434 141.535C358.319 141.535 359.051 141.444 359.631 141.262C360.217 141.086 360.653 140.829 360.939 140.49C361.232 140.158 361.379 139.761 361.379 139.299C361.379 138.869 361.281 138.544 361.086 138.322C360.891 138.107 360.604 137.964 360.227 137.893C359.849 137.814 359.387 137.775 358.84 137.775H356.984C356.503 137.775 356.083 137.85 355.725 138C355.367 138.15 355.09 138.371 354.895 138.664C354.706 138.957 354.611 139.322 354.611 139.758C354.611 140.337 354.855 140.777 355.344 141.076C355.832 141.382 356.529 141.535 357.434 141.535ZM357.854 132.98C358.628 132.98 359.211 132.785 359.602 132.395C359.992 132.004 360.188 131.434 360.188 130.686C360.188 129.885 359.989 129.286 359.592 128.889C359.195 128.485 358.609 128.283 357.834 128.283C357.092 128.283 356.519 128.492 356.115 128.908C355.718 129.318 355.52 129.921 355.52 130.715C355.52 131.444 355.721 132.004 356.125 132.395C356.529 132.785 357.105 132.98 357.854 132.98ZM374.484 132.629C374.484 133.508 374.37 134.292 374.143 134.982C373.915 135.673 373.586 136.255 373.156 136.73C372.727 137.206 372.206 137.57 371.594 137.824C370.988 138.072 370.301 138.195 369.533 138.195C368.817 138.195 368.16 138.072 367.561 137.824C366.968 137.57 366.454 137.206 366.018 136.73C365.588 136.255 365.253 135.673 365.012 134.982C364.777 134.292 364.66 133.508 364.66 132.629C364.66 131.457 364.859 130.461 365.256 129.641C365.653 128.814 366.219 128.186 366.955 127.756C367.697 127.32 368.579 127.102 369.602 127.102C370.578 127.102 371.431 127.32 372.16 127.756C372.896 128.192 373.465 128.824 373.869 129.65C374.279 130.471 374.484 131.464 374.484 132.629ZM366.34 132.629C366.34 133.488 366.454 134.234 366.682 134.865C366.91 135.497 367.261 135.985 367.736 136.33C368.212 136.675 368.824 136.848 369.572 136.848C370.314 136.848 370.923 136.675 371.398 136.33C371.88 135.985 372.235 135.497 372.463 134.865C372.691 134.234 372.805 133.488 372.805 132.629C372.805 131.776 372.691 131.04 372.463 130.422C372.235 129.797 371.883 129.315 371.408 128.977C370.933 128.638 370.318 128.469 369.562 128.469C368.449 128.469 367.632 128.837 367.111 129.572C366.597 130.308 366.34 131.327 366.34 132.629ZM384.104 122.805V127.346C384.104 127.606 384.097 127.87 384.084 128.137C384.071 128.397 384.048 128.638 384.016 128.859H384.123C384.344 128.482 384.624 128.166 384.963 127.912C385.308 127.652 385.699 127.456 386.135 127.326C386.571 127.189 387.033 127.121 387.521 127.121C388.381 127.121 389.097 127.258 389.67 127.531C390.249 127.805 390.682 128.228 390.969 128.801C391.262 129.374 391.408 130.116 391.408 131.027V138H389.807V131.135C389.807 130.243 389.602 129.576 389.191 129.133C388.788 128.69 388.166 128.469 387.326 128.469C386.532 128.469 385.897 128.622 385.422 128.928C384.953 129.227 384.615 129.67 384.406 130.256C384.204 130.842 384.104 131.558 384.104 132.404V138H382.482V122.805H384.104ZM398.869 127.102C399.781 127.102 400.562 127.303 401.213 127.707C401.864 128.111 402.362 128.677 402.707 129.406C403.052 130.129 403.225 130.975 403.225 131.945V132.951H395.832C395.852 134.208 396.164 135.165 396.77 135.822C397.375 136.48 398.228 136.809 399.328 136.809C400.005 136.809 400.604 136.747 401.125 136.623C401.646 136.499 402.186 136.317 402.746 136.076V137.502C402.206 137.743 401.669 137.919 401.135 138.029C400.607 138.14 399.982 138.195 399.26 138.195C398.231 138.195 397.333 137.987 396.564 137.57C395.803 137.147 395.21 136.529 394.787 135.715C394.364 134.901 394.152 133.905 394.152 132.727C394.152 131.574 394.344 130.578 394.729 129.738C395.119 128.892 395.666 128.241 396.369 127.785C397.079 127.329 397.912 127.102 398.869 127.102ZM398.85 128.43C397.984 128.43 397.294 128.713 396.779 129.279C396.265 129.846 395.959 130.637 395.861 131.652H401.525C401.519 131.014 401.418 130.454 401.223 129.973C401.034 129.484 400.744 129.107 400.354 128.84C399.963 128.566 399.462 128.43 398.85 128.43ZM410.842 127.102C411.057 127.102 411.281 127.115 411.516 127.141C411.75 127.16 411.958 127.189 412.141 127.229L411.936 128.732C411.76 128.687 411.564 128.651 411.35 128.625C411.135 128.599 410.933 128.586 410.744 128.586C410.314 128.586 409.908 128.674 409.523 128.85C409.146 129.019 408.814 129.266 408.527 129.592C408.241 129.911 408.016 130.298 407.854 130.754C407.691 131.203 407.609 131.704 407.609 132.258V138H405.979V127.297H407.326L407.502 129.27H407.57C407.792 128.872 408.059 128.511 408.371 128.186C408.684 127.854 409.045 127.59 409.455 127.395C409.872 127.199 410.334 127.102 410.842 127.102ZM418.283 127.102C419.195 127.102 419.976 127.303 420.627 127.707C421.278 128.111 421.776 128.677 422.121 129.406C422.466 130.129 422.639 130.975 422.639 131.945V132.951H415.246C415.266 134.208 415.578 135.165 416.184 135.822C416.789 136.48 417.642 136.809 418.742 136.809C419.419 136.809 420.018 136.747 420.539 136.623C421.06 136.499 421.6 136.317 422.16 136.076V137.502C421.62 137.743 421.083 137.919 420.549 138.029C420.021 138.14 419.396 138.195 418.674 138.195C417.645 138.195 416.747 137.987 415.979 137.57C415.217 137.147 414.624 136.529 414.201 135.715C413.778 134.901 413.566 133.905 413.566 132.727C413.566 131.574 413.758 130.578 414.143 129.738C414.533 128.892 415.08 128.241 415.783 127.785C416.493 127.329 417.326 127.102 418.283 127.102ZM418.264 128.43C417.398 128.43 416.708 128.713 416.193 129.279C415.679 129.846 415.373 130.637 415.275 131.652H420.939C420.933 131.014 420.832 130.454 420.637 129.973C420.448 129.484 420.158 129.107 419.768 128.84C419.377 128.566 418.876 128.43 418.264 128.43ZM286.33 168.629C286.33 169.508 286.216 170.292 285.988 170.982C285.76 171.673 285.432 172.255 285.002 172.73C284.572 173.206 284.051 173.57 283.439 173.824C282.834 174.072 282.147 174.195 281.379 174.195C280.663 174.195 280.005 174.072 279.406 173.824C278.814 173.57 278.299 173.206 277.863 172.73C277.434 172.255 277.098 171.673 276.857 170.982C276.623 170.292 276.506 169.508 276.506 168.629C276.506 167.457 276.704 166.461 277.102 165.641C277.499 164.814 278.065 164.186 278.801 163.756C279.543 163.32 280.425 163.102 281.447 163.102C282.424 163.102 283.277 163.32 284.006 163.756C284.742 164.192 285.311 164.824 285.715 165.65C286.125 166.471 286.33 167.464 286.33 168.629ZM278.186 168.629C278.186 169.488 278.299 170.234 278.527 170.865C278.755 171.497 279.107 171.985 279.582 172.33C280.057 172.675 280.669 172.848 281.418 172.848C282.16 172.848 282.769 172.675 283.244 172.33C283.726 171.985 284.081 171.497 284.309 170.865C284.536 170.234 284.65 169.488 284.65 168.629C284.65 167.776 284.536 167.04 284.309 166.422C284.081 165.797 283.729 165.315 283.254 164.977C282.779 164.638 282.163 164.469 281.408 164.469C280.295 164.469 279.478 164.837 278.957 165.572C278.443 166.308 278.186 167.327 278.186 168.629ZM293.996 163.102C294.211 163.102 294.436 163.115 294.67 163.141C294.904 163.16 295.113 163.189 295.295 163.229L295.09 164.732C294.914 164.687 294.719 164.651 294.504 164.625C294.289 164.599 294.087 164.586 293.898 164.586C293.469 164.586 293.062 164.674 292.678 164.85C292.3 165.019 291.968 165.266 291.682 165.592C291.395 165.911 291.171 166.298 291.008 166.754C290.845 167.203 290.764 167.704 290.764 168.258V174H289.133V163.297H290.48L290.656 165.27H290.725C290.946 164.872 291.213 164.511 291.525 164.186C291.838 163.854 292.199 163.59 292.609 163.395C293.026 163.199 293.488 163.102 293.996 163.102Z" fill="#575765"/>
<path d="M256.922 197.578H260.477C261.997 197.578 263.148 197.792 263.93 198.219C264.711 198.646 265.102 199.396 265.102 200.469C265.102 200.901 265.031 201.292 264.891 201.641C264.755 201.99 264.557 202.276 264.297 202.5C264.036 202.724 263.719 202.87 263.344 202.938V203.016C263.724 203.094 264.068 203.229 264.375 203.422C264.682 203.609 264.927 203.885 265.109 204.25C265.297 204.609 265.391 205.089 265.391 205.688C265.391 206.38 265.221 206.974 264.883 207.469C264.544 207.964 264.06 208.344 263.43 208.609C262.805 208.87 262.06 209 261.195 209H256.922V197.578ZM259.344 202.102H260.75C261.453 202.102 261.94 201.992 262.211 201.773C262.482 201.549 262.617 201.221 262.617 200.789C262.617 200.352 262.456 200.039 262.133 199.852C261.815 199.659 261.31 199.562 260.617 199.562H259.344V202.102ZM259.344 204.023V207H260.922C261.651 207 262.159 206.859 262.445 206.578C262.732 206.297 262.875 205.919 262.875 205.445C262.875 205.164 262.812 204.917 262.688 204.703C262.562 204.49 262.352 204.323 262.055 204.203C261.763 204.083 261.359 204.023 260.844 204.023H259.344ZM272.359 200.102C272.479 200.102 272.617 200.109 272.773 200.125C272.935 200.135 273.065 200.151 273.164 200.172L272.984 202.406C272.906 202.38 272.794 202.362 272.648 202.352C272.508 202.336 272.385 202.328 272.281 202.328C271.974 202.328 271.674 202.367 271.383 202.445C271.096 202.523 270.839 202.651 270.609 202.828C270.38 203 270.198 203.229 270.062 203.516C269.932 203.797 269.867 204.143 269.867 204.555V209H267.484V200.266H269.289L269.641 201.734H269.758C269.93 201.438 270.143 201.167 270.398 200.922C270.659 200.672 270.953 200.474 271.281 200.328C271.615 200.177 271.974 200.102 272.359 200.102ZM282.688 204.617C282.688 205.346 282.589 205.992 282.391 206.555C282.198 207.117 281.914 207.594 281.539 207.984C281.169 208.37 280.721 208.661 280.195 208.859C279.674 209.057 279.086 209.156 278.43 209.156C277.815 209.156 277.25 209.057 276.734 208.859C276.224 208.661 275.779 208.37 275.398 207.984C275.023 207.594 274.732 207.117 274.523 206.555C274.32 205.992 274.219 205.346 274.219 204.617C274.219 203.648 274.391 202.828 274.734 202.156C275.078 201.484 275.568 200.974 276.203 200.625C276.839 200.276 277.596 200.102 278.477 200.102C279.294 200.102 280.018 200.276 280.648 200.625C281.284 200.974 281.781 201.484 282.141 202.156C282.505 202.828 282.688 203.648 282.688 204.617ZM276.648 204.617C276.648 205.19 276.711 205.672 276.836 206.062C276.961 206.453 277.156 206.747 277.422 206.945C277.688 207.143 278.034 207.242 278.461 207.242C278.883 207.242 279.224 207.143 279.484 206.945C279.75 206.747 279.943 206.453 280.062 206.062C280.188 205.672 280.25 205.19 280.25 204.617C280.25 204.039 280.188 203.56 280.062 203.18C279.943 202.794 279.75 202.505 279.484 202.312C279.219 202.12 278.872 202.023 278.445 202.023C277.815 202.023 277.357 202.24 277.07 202.672C276.789 203.104 276.648 203.753 276.648 204.617ZM291.836 209L291.164 205.945C291.128 205.763 291.068 205.495 290.984 205.141C290.901 204.781 290.81 204.398 290.711 203.992C290.617 203.581 290.529 203.201 290.445 202.852C290.367 202.503 290.31 202.247 290.273 202.086H290.203C290.167 202.247 290.109 202.503 290.031 202.852C289.953 203.201 289.865 203.581 289.766 203.992C289.672 204.404 289.583 204.792 289.5 205.156C289.417 205.516 289.354 205.789 289.312 205.977L288.609 209H286.047L283.562 200.266H285.938L286.945 204.133C287.013 204.404 287.078 204.727 287.141 205.102C287.203 205.471 287.258 205.831 287.305 206.18C287.357 206.523 287.396 206.797 287.422 207H287.484C287.495 206.849 287.516 206.648 287.547 206.398C287.583 206.148 287.622 205.891 287.664 205.625C287.711 205.354 287.753 205.112 287.789 204.898C287.831 204.68 287.862 204.531 287.883 204.453L288.961 200.266H291.586L292.609 204.453C292.646 204.604 292.693 204.844 292.75 205.172C292.812 205.5 292.867 205.839 292.914 206.188C292.961 206.531 292.987 206.802 292.992 207H293.055C293.076 206.823 293.112 206.56 293.164 206.211C293.216 205.862 293.276 205.497 293.344 205.117C293.417 204.732 293.49 204.404 293.562 204.133L294.609 200.266H296.945L294.43 209H291.836ZM304.453 206.406C304.453 207 304.312 207.503 304.031 207.914C303.755 208.32 303.341 208.63 302.789 208.844C302.237 209.052 301.549 209.156 300.727 209.156C300.117 209.156 299.594 209.117 299.156 209.039C298.724 208.961 298.286 208.831 297.844 208.648V206.68C298.318 206.893 298.826 207.07 299.367 207.211C299.914 207.346 300.393 207.414 300.805 207.414C301.268 207.414 301.599 207.346 301.797 207.211C302 207.07 302.102 206.888 302.102 206.664C302.102 206.518 302.06 206.388 301.977 206.273C301.898 206.154 301.727 206.021 301.461 205.875C301.195 205.724 300.779 205.529 300.211 205.289C299.664 205.06 299.214 204.828 298.859 204.594C298.51 204.359 298.25 204.083 298.078 203.766C297.911 203.443 297.828 203.034 297.828 202.539C297.828 201.732 298.141 201.125 298.766 200.719C299.396 200.307 300.237 200.102 301.289 200.102C301.831 200.102 302.346 200.156 302.836 200.266C303.331 200.375 303.839 200.549 304.359 200.789L303.641 202.508C303.208 202.32 302.799 202.167 302.414 202.047C302.034 201.927 301.646 201.867 301.25 201.867C300.901 201.867 300.638 201.914 300.461 202.008C300.284 202.102 300.195 202.245 300.195 202.438C300.195 202.578 300.24 202.703 300.328 202.812C300.422 202.922 300.599 203.044 300.859 203.18C301.125 203.31 301.513 203.479 302.023 203.688C302.518 203.891 302.948 204.104 303.312 204.328C303.677 204.547 303.958 204.82 304.156 205.148C304.354 205.471 304.453 205.891 304.453 206.406ZM309.914 200.102C310.721 200.102 311.417 200.258 312 200.57C312.583 200.878 313.034 201.326 313.352 201.914C313.669 202.503 313.828 203.221 313.828 204.07V205.227H308.195C308.221 205.898 308.422 206.427 308.797 206.812C309.177 207.193 309.703 207.383 310.375 207.383C310.932 207.383 311.443 207.326 311.906 207.211C312.37 207.096 312.846 206.924 313.336 206.695V208.539C312.904 208.753 312.451 208.909 311.977 209.008C311.508 209.107 310.938 209.156 310.266 209.156C309.391 209.156 308.615 208.995 307.938 208.672C307.266 208.349 306.737 207.857 306.352 207.195C305.971 206.534 305.781 205.701 305.781 204.695C305.781 203.674 305.953 202.826 306.297 202.148C306.646 201.466 307.13 200.956 307.75 200.617C308.37 200.273 309.091 200.102 309.914 200.102ZM309.93 201.797C309.466 201.797 309.081 201.945 308.773 202.242C308.471 202.539 308.297 203.005 308.25 203.641H311.594C311.589 203.286 311.523 202.971 311.398 202.695C311.279 202.419 311.096 202.201 310.852 202.039C310.612 201.878 310.305 201.797 309.93 201.797Z" fill="#008DF2"/>
<path d="M254 213H316" stroke="#008DF2" stroke-width="2"/>
<path d="M268.686 37.7486L268.686 37.7486L268.69 37.7442C269.482 36.9347 270.552 36.5 271.69 36.5H275.974V36H280.258V36.5H288.827V36H293.111V36.5H301.679V36H305.963V36.5H310.247C312.589 36.5 314.495 38.3876 314.5 40.7468V45.0308H315V49.3157H314.5V57.8856H315V62.1706H314.5V70.7405H315V75.0254H314.5V79.3103C314.5 80.4181 314.046 81.4945 313.249 82.3157C313.248 82.3165 313.247 82.3173 313.246 82.3181L309.27 86.2926L309.624 86.6462L305.643 90.6258L305.29 90.2722L301.309 94.2518C300.512 95.0481 299.438 95.5 298.305 95.5H294.018V96H289.732V95.5H281.159V96H276.873V95.5H268.3V96H264.013V95.5H259.727C257.389 95.5 255.5 93.5962 255.5 91.2542V86.9692H255V82.6843H255.5V74.1144H255V69.8294H255.5V61.2595H255V56.9746H255.5V52.6897C255.5 51.5506 255.936 50.4736 256.723 49.6869L260.71 45.7077L260.357 45.3538L264.345 41.3742L264.698 41.7281L268.686 37.7486ZM294.828 68.7867H288.019V69.2867H281.211C279.146 69.2867 277.469 70.9634 277.469 73.0268V76.642H276.969V80.2571H277.469V83.8723C277.469 84.079 277.408 84.2719 277.308 84.434L276.883 84.1708C276.828 84.2593 276.75 84.334 276.657 84.386L276.902 84.8221C276.741 84.9121 276.555 84.9649 276.356 84.9649H274.337V84.4649H272.319V84.9649H270.3C270.101 84.9649 269.914 84.9116 269.753 84.8184L270.004 84.3859C269.913 84.3334 269.839 84.2579 269.787 84.1685L269.354 84.4188C269.261 84.2571 269.207 84.0694 269.207 83.8723V80.2554H269.707V76.6386H269.207V73.0217C269.207 70.8364 269.793 68.786 270.815 67.0201L271.248 67.2706C272.258 65.5258 273.714 64.0708 275.459 63.0612L275.209 62.6284C276.975 61.6069 279.025 61.0224 281.211 61.0224H288.021V61.5224H294.831V61.0224H301.642C301.836 61.0224 302.022 61.0708 302.185 61.1623L301.941 61.5984C302.032 61.6497 302.107 61.7246 302.158 61.8161L302.594 61.5713C302.686 61.7345 302.734 61.9207 302.734 62.1149V64.1413H302.234V66.1677H302.734V68.1941V68.6941H302.608C302.429 69.04 302.071 69.2867 301.637 69.2867H294.828V68.7867ZM296.414 56H291.191V56.5H280.746V56H275.523V56.5H270.3C270.101 56.5 269.914 56.4467 269.753 56.3535L270.004 55.921C269.913 55.8685 269.839 55.793 269.787 55.7036L269.354 55.9539C269.261 55.7922 269.207 55.6045 269.207 55.4074V53.3827H269.707V51.358H269.207V49.3333C269.207 49.1391 269.256 48.9529 269.348 48.7897L269.784 49.0344C269.835 48.943 269.91 48.8681 270.001 48.8168L269.757 48.3807C269.92 48.2892 270.106 48.2407 270.3 48.2407H275.524V48.7407H280.747V48.2407H291.195V48.7407H296.418V48.2407H301.642C301.836 48.2407 302.022 48.2892 302.185 48.3807L301.941 48.8168C302.032 48.8681 302.107 48.943 302.158 49.0344L302.594 48.7897C302.686 48.9529 302.734 49.1391 302.734 49.3333V51.358H302.234V53.3827H302.734V55.4074V55.9074H302.608C302.429 56.2532 302.071 56.5 301.637 56.5H296.414V56Z" stroke="#8C8D94" stroke-dasharray="10 5"/>
<rect x="0.5" y="0.5" width="569" height="239" rx="14.5" stroke="#A6A8AE" stroke-dasharray="10 10"/>
</svg>
