<svg width="570" height="240" viewBox="0 0 570 240" fill="none" xmlns="http://www.w3.org/2000/svg">
<rect x="0.5" y="0.5" width="569" height="239" rx="14.5" fill="white"/>
<path fill-rule="evenodd" clip-rule="evenodd" d="M73 76.5C73 78.2795 71.6541 79.875 69.8747 79.875H25.375C24.1322 79.8736 22.9407 79.3793 22.0619 78.5006C21.1832 77.6218 20.6889 76.4303 20.6875 75.1875V26.75C20.6889 25.5072 21.1832 24.3157 22.0619 23.4369C22.9407 22.5582 24.1322 22.0639 25.375 22.0625H91C92.2428 22.0639 93.4343 22.5582 94.3131 23.4369C95.1918 24.3157 95.6861 25.5072 95.6875 26.75V53.4964C95.6875 54.3489 95.0042 55.044 94.1519 55.0587C93.2786 55.0738 92.5625 54.3699 92.5625 53.4964V26.75C92.562 26.3358 92.3972 25.9386 92.1043 25.6457C91.8114 25.3528 91.4142 25.188 91 25.1875H25.375C24.9608 25.188 24.5636 25.3528 24.2707 25.6457C23.9778 25.9386 23.813 26.3358 23.8125 26.75V74.25L46.3017 46.1378C46.6035 45.7605 46.9886 45.4584 47.4268 45.255C47.865 45.0517 48.3444 44.9527 48.8273 44.9658C49.3102 44.979 49.7835 45.1039 50.21 45.3308C50.6365 45.5577 51.0046 45.8805 51.2853 46.2736L59.7533 57.3498L68.3484 48.7547C68.6575 48.4416 69.0301 48.1983 69.441 48.0411C69.852 47.884 70.2918 47.8167 70.7309 47.8438C71.1698 47.8682 71.5985 47.9848 71.9892 48.1861C72.3799 48.3874 72.7238 48.6687 72.9984 49.0119L80.9514 57.7527C81.5383 58.3978 81.4254 59.4088 80.7551 59.9667C80.127 60.4894 79.1907 60.4601 78.6408 59.8556L70.6219 51.0397L61.6728 59.8608L72.0152 73.3888C72.6935 74.2761 73 75.3831 73 76.5ZM25.8152 76.75L48.772 48.1306L70.6511 76.75H25.8152Z" fill="#D9DBE8"/>
<path fill-rule="evenodd" clip-rule="evenodd" d="M72.0041 31.7846C71.1457 33.0694 70.6875 34.5798 70.6875 36.125C70.6899 38.1963 71.5138 40.182 72.9784 41.6466C74.443 43.1112 76.4287 43.9351 78.5 43.9375C80.0452 43.9375 81.5556 43.4793 82.8404 42.6209C84.1252 41.7624 85.1265 40.5423 85.7178 39.1147C86.3091 37.6872 86.4638 36.1163 86.1624 34.6009C85.8609 33.0854 85.1169 31.6933 84.0243 30.6007C82.9317 29.5081 81.5396 28.7641 80.0241 28.4626C78.5087 28.1612 76.9378 28.3159 75.5103 28.9072C74.0827 29.4985 72.8626 30.4998 72.0041 31.7846ZM74.6025 38.7292C74.0874 37.9584 73.8125 37.0521 73.8125 36.125C73.8139 34.8822 74.3082 33.6907 75.1869 32.8119C76.0657 31.9332 77.2572 31.4389 78.5 31.4375C79.4271 31.4375 80.3334 31.7124 81.1042 32.2275C81.8751 32.7426 82.4759 33.4746 82.8307 34.3312C83.1855 35.1877 83.2783 36.1302 83.0974 37.0395C82.9166 37.9488 82.4701 38.784 81.8146 39.4396C81.159 40.0951 80.3238 40.5416 79.4145 40.7224C78.5052 40.9033 77.5627 40.8105 76.7062 40.4557C75.8496 40.1009 75.1176 39.5001 74.6025 38.7292Z" fill="#D9DBE8"/>
<path d="M103.042 77.8549C103.335 77.5618 103.5 77.1644 103.5 76.75C103.5 76.3356 103.335 75.9382 103.042 75.6451C102.749 75.3521 102.352 75.1875 101.938 75.1875H86.3125C85.8981 75.1875 85.5007 75.3521 85.2076 75.6451C84.9146 75.9382 84.75 76.3356 84.75 76.75C84.75 77.1644 84.9146 77.5618 85.2076 77.8549C85.5007 78.1479 85.8981 78.3125 86.3125 78.3125H101.938C102.352 78.3125 102.749 78.1479 103.042 77.8549Z" fill="#D32F2F"/>
<path fill-rule="evenodd" clip-rule="evenodd" d="M112 76.5C112 86.165 104.165 94 94.5 94C84.835 94 77 86.165 77 76.5C77 66.835 84.835 59 94.5 59C104.165 59 112 66.835 112 76.5ZM108.5 76.5C108.5 84.232 102.232 90.5 94.5 90.5C86.768 90.5 80.5 84.232 80.5 76.5C80.5 68.768 86.768 62.5 94.5 62.5C102.232 62.5 108.5 68.768 108.5 76.5Z" fill="#D32F2F"/>
<rect x="0.5" y="0.5" width="569" height="239" rx="14.5" stroke="#A6A8AE" stroke-dasharray="10 10"/>
</svg>
