<svg width="261" height="176" viewBox="0 0 261 176" fill="none" xmlns="http://www.w3.org/2000/svg">
<rect x="0.5" y="0.5" width="260" height="175" rx="14.5" fill="white"/>
<path d="M50 41C50 41.1989 49.921 41.3897 49.7803 41.5303C49.6397 41.671 49.4489 41.75 49.25 41.75H41.75C41.5511 41.75 41.3603 41.671 41.2197 41.5303C41.079 41.3897 41 41.1989 41 41C41 40.8011 41.079 40.6103 41.2197 40.4697C41.3603 40.329 41.5511 40.25 41.75 40.25H49.25C49.4489 40.25 49.6397 40.329 49.7803 40.4697C49.921 40.6103 50 40.8011 50 41ZM53.75 41C53.7507 43.0573 52.9825 45.0406 51.596 46.5606C50.2095 48.0806 48.305 49.0274 46.2563 49.2153C44.2075 49.4032 42.1626 48.8185 40.5228 47.5761C38.883 46.3336 37.7668 44.5231 37.3933 42.5H12.5C11.9035 42.4993 11.3315 42.2621 10.9097 41.8403C10.4879 41.4185 10.2507 40.8465 10.25 40.25V17C10.2507 16.4035 10.4879 15.8315 10.9097 15.4097C11.3315 14.9879 11.9035 14.7507 12.5 14.75H44C44.5965 14.7507 45.1685 14.9879 45.5903 15.4097C46.0121 15.8315 46.2493 16.4035 46.25 17V32.788C48.2983 32.9769 50.2023 33.9235 51.5895 35.4423C52.9767 36.9612 53.7471 38.943 53.75 41ZM11.75 17V39.8L22.5448 26.3061C22.6897 26.1251 22.8745 25.98 23.0849 25.8824C23.2952 25.7848 23.5253 25.7373 23.7571 25.7436C23.9889 25.7499 24.2161 25.8099 24.4208 25.9188C24.6255 26.0277 24.8022 26.1826 24.9369 26.3713L29.0016 31.6879L33.1272 27.5623C33.2756 27.4119 33.4544 27.2952 33.6517 27.2197C33.8489 27.1443 34.0601 27.112 34.2709 27.125C34.4815 27.1367 34.6873 27.1927 34.8748 27.2893C35.0624 27.3859 35.2274 27.521 35.3592 27.6857L41.1222 34.0197C42.217 33.3278 43.4603 32.9057 44.75 32.788V17C44.7497 16.8012 44.6706 16.6106 44.53 16.47C44.3894 16.3294 44.1988 16.2503 44 16.25H12.5C12.3012 16.2503 12.1106 16.3294 11.97 16.47C11.8294 16.6106 11.7503 16.8012 11.75 17ZM23.7306 27.2627L12.7113 41H34.2325L23.7306 27.2627ZM37.25 41C37.2507 39.8586 37.489 38.7298 37.9499 37.6855C38.4108 36.6413 39.0841 35.7045 39.9269 34.9347L34.2185 28.659L29.923 32.8932L36.1207 41H37.25ZM52.25 41C52.25 39.665 51.8541 38.3599 51.1124 37.2499C50.3707 36.1399 49.3165 35.2747 48.0831 34.7638C46.8497 34.2529 45.4925 34.1192 44.1831 34.3797C42.8738 34.6401 41.671 35.283 40.727 36.227C39.783 37.171 39.1401 38.3738 38.8797 39.6831C38.6192 40.9925 38.7529 42.3497 39.2638 43.5831C39.7747 44.8165 40.6399 45.8707 41.7499 46.6124C42.8599 47.3541 44.165 47.75 45.5 47.75C47.2896 47.748 49.0053 47.0362 50.2708 45.7708C51.5362 44.5053 52.248 42.7896 52.25 41ZM34.25 21.5C34.25 20.7583 34.4699 20.0333 34.882 19.4166C35.294 18.7999 35.8797 18.3193 36.5649 18.0355C37.2502 17.7516 38.0042 17.6774 38.7316 17.8221C39.459 17.9667 40.1272 18.3239 40.6516 18.8483C41.1761 19.3728 41.5333 20.041 41.6779 20.7684C41.8226 21.4958 41.7484 22.2498 41.4645 22.9351C41.1807 23.6203 40.7001 24.206 40.0834 24.618C39.4667 25.0301 38.7417 25.25 38 25.25C37.0058 25.2488 36.0527 24.8534 35.3496 24.1504C34.6466 23.4473 34.2512 22.4942 34.25 21.5ZM35.75 21.5C35.75 21.945 35.882 22.38 36.1292 22.75C36.3764 23.12 36.7278 23.4084 37.139 23.5787C37.5501 23.749 38.0025 23.7936 38.439 23.7068C38.8754 23.62 39.2763 23.4057 39.591 23.091C39.9057 22.7763 40.12 22.3754 40.2068 21.939C40.2936 21.5025 40.249 21.0501 40.0787 20.639C39.9084 20.2278 39.62 19.8764 39.25 19.6292C38.88 19.382 38.445 19.25 38 19.25C37.4035 19.2507 36.8315 19.4879 36.4097 19.9097C35.9879 20.3315 35.7507 20.9035 35.75 21.5Z" fill="#008DF2"/>
<rect x="0.5" y="0.5" width="260" height="175" rx="14.5" stroke="#A6A8AE" stroke-dasharray="10 10"/>
</svg>
