<svg width="308" height="560" viewBox="0 0 308 560" fill="none" xmlns="http://www.w3.org/2000/svg">
<g filter="url(#filter0_d_1_121)">
<g clip-path="url(#clip0_1_121)">
<rect x="44" y="21" width="221" height="478.539" rx="23.5733" fill="white"/>
<g clip-path="url(#clip1_1_121)">
<path opacity="0.010101" d="M342.286 808.927C352.991 465.143 -34.309 -50.8915 -63.1468 218.307C-86.2171 433.667 471.292 394.416 752.931 347.871" stroke="#E9E2F4" stroke-width="0.589333"/>
<path opacity="0.020202" d="M336.171 805.461C352.787 464.767 -22.5775 -53.5684 -55.8885 212.86C-82.5373 426.002 471.424 396.672 751.735 355.365" stroke="#E9E2F4" stroke-width="0.589333"/>
<path opacity="0.030303" d="M330.171 801.894C352.593 464.39 -10.8756 -55.988 -48.5719 207.596C-78.729 418.463 471.508 398.918 750.396 362.787" stroke="#E9E3F4" stroke-width="0.589333"/>
<path opacity="0.040404" d="M324.285 798.227C352.407 464.011 0.79104 -58.1538 -41.2016 202.514C-74.7957 411.049 471.546 401.15 748.916 370.134" stroke="#E9E3F4" stroke-width="0.589333"/>
<path opacity="0.050505" d="M318.516 794.463C352.231 463.63 12.4185 -60.0672 -33.7802 197.616C-70.7391 403.763 471.539 403.369 747.299 377.403" stroke="#E9E3F4" stroke-width="0.589333"/>
<path opacity="0.0606061" d="M312.865 790.607C352.062 463.249 23.9989 -61.7297 -26.3146 192.903C-66.5654 396.608 471.486 405.573 745.543 384.592" stroke="#E9E3F4" stroke-width="0.589333"/>
<path opacity="0.0707071" d="M307.335 786.658C351.904 462.866 35.53 -63.1446 -18.806 188.372C-62.2748 389.585 471.389 407.762 743.655 391.698" stroke="#E9E3F5" stroke-width="0.589333"/>
<path opacity="0.0808081" d="M301.927 782.622C351.755 462.483 47.0058 -64.3137 -11.2594 184.025C-57.8716 382.696 471.248 409.933 741.635 398.719" stroke="#E9E4F5" stroke-width="0.589333"/>
<path opacity="0.0909091" d="M296.64 778.502C351.614 462.099 58.4197 -65.2387 -3.68043 179.862C-53.3605 375.943 471.063 412.089 739.485 405.652" stroke="#E9E4F5" stroke-width="0.589333"/>
<path opacity="0.10101" d="M291.478 774.3C351.483 461.715 69.7689 -65.9224 3.92895 175.883C-48.743 369.327 470.836 414.226 737.209 412.495" stroke="#E9E4F5" stroke-width="0.589333"/>
<path opacity="0.111111" d="M286.441 770.019C351.359 461.331 81.0466 -66.3686 11.5627 172.086C-44.0244 362.85 470.565 416.344 734.808 419.245" stroke="#E9E4F5" stroke-width="0.589333"/>
<path opacity="0.121212" d="M281.531 765.664C351.246 460.947 92.2494 -66.5777 19.2184 168.474C-39.2064 356.515 470.253 418.443 732.286 425.902" stroke="#E9E5F5" stroke-width="0.589333"/>
<path opacity="0.131313" d="M276.747 761.235C351.14 460.563 103.372 -66.5548 26.8908 165.043C-34.2938 350.32 469.9 420.521 729.645 432.461" stroke="#E9E5F5" stroke-width="0.589333"/>
<path opacity="0.141414" d="M272.093 756.738C351.044 460.179 114.409 -66.301 34.5768 161.794C-29.289 344.27 469.506 422.578 726.887 438.922" stroke="#E9E5F5" stroke-width="0.589333"/>
<path opacity="0.151515" d="M267.568 752.175C350.957 459.796 125.357 -65.8206 42.2723 158.727C-24.1958 338.365 469.073 424.612 724.015 445.281" stroke="#E9E5F5" stroke-width="0.589333"/>
<path opacity="0.161616" d="M263.174 747.548C350.878 459.413 136.211 -65.1166 49.9726 155.839C-19.0184 332.604 468.599 426.623 721.032 451.537" stroke="#E9E5F5" stroke-width="0.589333"/>
<path opacity="0.171717" d="M258.911 742.862C350.808 459.032 146.967 -64.1906 57.6746 153.133C-13.7593 326.992 468.088 428.612 717.941 457.689" stroke="#E9E6F5" stroke-width="0.589333"/>
<path opacity="0.181818" d="M254.779 738.119C350.747 458.652 157.62 -63.0471 65.3736 150.606C-8.42312 321.528 467.538 430.576 714.744 463.734" stroke="#E9E6F5" stroke-width="0.589333"/>
<path opacity="0.191919" d="M250.779 733.323C350.692 458.273 168.163 -61.6896 73.0646 148.256C-3.01433 316.212 466.95 432.514 711.442 469.67" stroke="#E9E6F6" stroke-width="0.589333"/>
<path opacity="0.20202" d="M246.913 728.477C350.648 457.896 178.598 -60.1205 80.7471 146.084C2.46676 311.047 466.327 434.427 708.042 475.497" stroke="#E9E6F6" stroke-width="0.589333"/>
<path opacity="0.212121" d="M243.181 723.583C350.612 457.521 188.916 -58.344 88.4152 144.088C8.01452 306.033 465.668 436.314 704.545 481.211" stroke="#E9E6F6" stroke-width="0.589333"/>
<path opacity="0.222222" d="M239.583 718.645C350.584 457.147 199.115 -56.3643 96.0654 142.266C13.6257 301.17 464.974 438.173 700.953 486.812" stroke="#E9E7F6" stroke-width="0.589333"/>
<path opacity="0.232323" d="M236.119 713.667C350.564 456.775 209.189 -54.1837 103.693 140.618C19.2953 296.459 464.244 440.005 697.268 492.297" stroke="#E9E7F6" stroke-width="0.589333"/>
<path opacity="0.242424" d="M232.79 708.651C350.553 456.406 219.137 -51.8067 111.296 139.142C25.0223 291.901 463.482 441.808 693.497 497.666" stroke="#E9E7F6" stroke-width="0.589333"/>
<path opacity="0.252525" d="M229.597 703.601C350.549 456.039 228.954 -49.2363 118.869 137.838C30.8016 287.497 462.687 443.583 689.639 502.918" stroke="#EAE7F6" stroke-width="0.589333"/>
<path opacity="0.262626" d="M226.538 698.52C350.554 455.675 238.636 -46.4772 126.41 136.703C36.6295 283.247 461.86 445.328 685.698 508.05" stroke="#EAE8F6" stroke-width="0.589333"/>
<path opacity="0.272727" d="M223.615 693.411C350.566 455.313 248.179 -43.5332 133.914 135.736C42.5025 279.151 461.001 447.042 681.677 513.061" stroke="#EAE8F6" stroke-width="0.589333"/>
<path opacity="0.282828" d="M220.827 688.277C350.586 454.954 257.58 -40.4081 141.379 134.935C48.4172 275.209 460.112 448.726 677.58 517.951" stroke="#EAE8F6" stroke-width="0.589333"/>
<path opacity="0.292929" d="M218.174 683.121C350.614 454.599 266.836 -37.1061 148.799 134.298C54.3701 271.422 459.194 450.379 673.409 522.717" stroke="#EAE8F6" stroke-width="0.589333"/>
<path opacity="0.30303" d="M215.657 677.947C350.65 454.246 275.944 -33.6317 156.174 133.824C60.3583 267.789 458.247 452 669.168 527.36" stroke="#EAE8F6" stroke-width="0.589333"/>
<path opacity="0.313131" d="M213.275 672.758C350.693 453.897 284.9 -29.9882 163.498 133.511C66.3762 264.311 457.271 453.588 664.859 531.877" stroke="#EAE9F7" stroke-width="0.589333"/>
<path opacity="0.323232" d="M211.026 667.556C350.743 453.551 293.7 -26.18 170.767 133.358C72.4214 260.988 456.268 455.145 660.485 536.269" stroke="#EAE9F7" stroke-width="0.589333"/>
<path opacity="0.333333" d="M208.913 662.345C350.801 453.209 302.343 -22.2118 177.981 133.361C78.4911 257.82 455.239 456.668 656.05 540.534" stroke="#EAE9F7" stroke-width="0.589333"/>
<path opacity="0.343434" d="M206.935 657.128C350.866 452.871 310.826 -18.088 185.134 133.52C84.581 254.806 454.185 458.157 651.556 544.672" stroke="#EAE9F7" stroke-width="0.589333"/>
<path opacity="0.353535" d="M205.089 651.908C350.937 452.537 319.144 -13.813 192.224 133.831C90.6871 251.946 453.106 459.612 647.007 548.681" stroke="#EAE9F7" stroke-width="0.589333"/>
<path opacity="0.363636" d="M203.377 646.688C351.017 452.207 327.297 -9.39091 199.247 134.293C96.8072 249.239 452.004 461.033 642.407 552.561" stroke="#EAEAF7" stroke-width="0.589333"/>
<path opacity="0.373737" d="M201.797 641.472C351.102 451.882 335.281 -4.82596 206.201 134.903C102.937 246.687 450.878 462.419 637.757 556.312" stroke="#EAEAF7" stroke-width="0.589333"/>
<path opacity="0.383838" d="M200.349 636.261C351.195 451.56 343.094 -0.123848 213.082 135.66C109.072 244.287 449.731 463.769 633.061 559.932" stroke="#EAEAF7" stroke-width="0.589333"/>
<path opacity="0.393939" d="M199.033 631.06C351.293 451.243 350.733 4.712 219.887 136.561C115.211 242.039 448.562 465.085 628.322 563.423" stroke="#EAEAF7" stroke-width="0.589333"/>
<path opacity="0.40404" d="M197.846 625.871C351.398 450.931 358.196 9.67623 226.614 137.602C121.348 239.943 447.373 466.364 623.543 566.782" stroke="#EAEAF7" stroke-width="0.589333"/>
<path opacity="0.414141" d="M196.79 620.697C351.51 450.624 365.482 14.7647 233.26 138.783C127.482 237.998 446.165 467.607 618.728 570.01" stroke="#EAEBF7" stroke-width="0.589333"/>
<path opacity="0.424242" d="M195.862 615.541C351.628 450.321 372.588 19.9721 239.822 140.1C133.608 236.203 444.938 468.814 613.88 573.107" stroke="#EAEBF7" stroke-width="0.589333"/>
<path opacity="0.434343" d="M195.061 610.407C351.752 450.024 379.512 25.2945 246.296 141.552C139.724 234.557 443.694 469.984 609.001 576.072" stroke="#EAEBF7" stroke-width="0.589333"/>
<path opacity="0.444444" d="M194.388 605.296C351.882 449.731 386.252 30.7266 252.681 143.134C145.825 233.06 442.433 471.117 604.095 578.905" stroke="#EAEBF8" stroke-width="0.589333"/>
<path opacity="0.454545" d="M193.84 600.211C352.016 449.444 392.806 36.2638 258.974 144.845C151.908 231.71 441.157 472.214 599.164 581.607" stroke="#EAECF8" stroke-width="0.589333"/>
<path opacity="0.464646" d="M193.416 595.156C352.158 449.162 399.174 41.9007 265.173 146.681C157.972 230.505 439.866 473.272 594.213 584.177" stroke="#EAECF8" stroke-width="0.589333"/>
<path opacity="0.474747" d="M193.116 590.134C352.304 448.886 405.353 47.6337 271.274 148.641C164.011 229.447 438.56 474.293 589.243 586.616" stroke="#EAECF8" stroke-width="0.589333"/>
<path opacity="0.484848" d="M192.938 585.146C352.456 448.615 411.342 53.4565 277.276 150.72C170.023 228.531 437.242 475.276 584.259 588.922" stroke="#EAECF8" stroke-width="0.589333"/>
<path opacity="0.494949" d="M192.88 580.197C352.613 448.35 417.141 59.3657 283.176 152.918C176.004 227.759 435.912 476.222 579.263 591.099" stroke="#EAECF8" stroke-width="0.589333"/>
<path opacity="0.50505" d="M192.941 575.287C352.774 448.091 422.747 65.355 288.972 155.229C181.952 227.128 434.571 477.13 574.258 593.143" stroke="#EAEDF8" stroke-width="0.589333"/>
<path opacity="0.515152" d="M193.121 570.421C352.941 447.838 428.16 71.421 294.662 157.652C187.864 226.637 433.22 478 569.247 595.058" stroke="#EAEDF8" stroke-width="0.589333"/>
<path opacity="0.525253" d="M193.417 565.6C353.112 447.59 433.379 77.5571 300.244 160.183C193.736 226.284 431.859 478.831 564.233 596.842" stroke="#EAEDF8" stroke-width="0.589333"/>
<path opacity="0.535354" d="M193.827 560.828C353.288 447.348 438.403 83.7594 305.715 162.819C199.565 226.067 430.49 479.624 559.221 598.497" stroke="#EAEDF8" stroke-width="0.589333"/>
<path opacity="0.545455" d="M194.351 556.107C353.469 447.113 443.231 90.0234 311.075 165.559C205.349 225.987 429.113 480.38 554.211 600.023" stroke="#EAEDF8" stroke-width="0.589333"/>
<path opacity="0.555556" d="M194.987 551.438C353.653 446.884 447.863 96.3427 316.32 168.396C211.085 226.039 427.73 481.097 549.207 601.42" stroke="#EAEEF8" stroke-width="0.589333"/>
<path opacity="0.565657" d="M195.731 546.826C353.842 446.661 452.299 102.714 321.448 171.33C216.768 226.223 426.341 481.776 544.212 602.69" stroke="#EAEEF9" stroke-width="0.589333"/>
<path opacity="0.575758" d="M196.585 542.272C354.034 446.444 456.537 109.131 326.46 174.357C222.398 226.538 424.948 482.416 539.23 603.833" stroke="#EAEEF9" stroke-width="0.589333"/>
<path opacity="0.585859" d="M197.544 537.777C354.23 446.234 460.578 115.59 331.352 177.473C227.97 226.98 423.55 483.019 534.263 604.85" stroke="#EAEEF9" stroke-width="0.589333"/>
<path opacity="0.59596" d="M198.608 533.347C354.43 446.031 464.422 122.085 336.123 180.676C233.483 227.549 422.15 483.583 529.314 605.741" stroke="#EAEFF9" stroke-width="0.589333"/>
<path opacity="0.606061" d="M199.774 528.981C354.633 445.834 468.068 128.612 340.771 183.962C238.933 228.242 420.747 484.11 524.384 606.509" stroke="#EAEFF9" stroke-width="0.589333"/>
<path opacity="0.616162" d="M201.041 524.682C354.839 445.643 471.518 135.165 345.296 187.328C244.318 229.058 419.344 484.599 519.479 607.153" stroke="#EAEFF9" stroke-width="0.589333"/>
<path opacity="0.626263" d="M202.406 520.452C355.049 445.459 474.77 141.74 349.696 190.77C249.636 229.993 417.941 485.049 514.601 607.675" stroke="#EAEFF9" stroke-width="0.589333"/>
<path opacity="0.636364" d="M203.868 516.295C355.261 445.282 477.825 148.333 353.969 194.285C254.883 231.047 416.538 485.463 509.751 608.076" stroke="#EAEFF9" stroke-width="0.589333"/>
<path opacity="0.646465" d="M205.424 512.21C355.476 445.112 480.684 154.937 358.114 197.87C260.057 232.217 415.136 485.839 504.933 608.357" stroke="#EAF0F9" stroke-width="0.589333"/>
<path opacity="0.656566" d="M207.073 508.201C355.694 444.948 483.348 161.547 362.131 201.521C265.158 233.499 413.738 486.177 500.15 608.518" stroke="#EAF0F9" stroke-width="0.589333"/>
<path opacity="0.666667" d="M208.812 504.27C355.914 444.791 485.816 168.162 366.018 205.235C270.18 234.894 412.343 486.479 495.404 608.564" stroke="#EAF0F9" stroke-width="0.589333"/>
<path opacity="0.676768" d="M210.638 500.418C356.136 444.641 488.089 174.772 369.773 209.008C275.121 236.397 410.95 486.743 490.697 608.492" stroke="#EAF0F9" stroke-width="0.589333"/>
<path opacity="0.686869" d="M212.55 496.647C356.36 444.498 490.169 181.377 373.398 212.839C279.981 238.008 409.564 486.971 486.033 608.307" stroke="#EAF0F9" stroke-width="0.589333"/>
<path opacity="0.69697" d="M214.545 492.96C356.586 444.362 492.056 187.969 376.89 216.721C284.756 239.723 408.183 487.163 481.414 608.008" stroke="#EAF1FA" stroke-width="0.589333"/>
<path opacity="0.707071" d="M216.622 489.358C356.814 444.232 493.752 194.544 380.248 220.653C289.445 241.54 406.81 487.319 476.842 607.598" stroke="#EAF1FA" stroke-width="0.589333"/>
<path opacity="0.717172" d="M218.777 485.842C357.043 444.11 495.257 201.099 383.473 224.631C294.045 243.456 405.443 487.439 472.32 607.077" stroke="#EAF1FA" stroke-width="0.589333"/>
<path opacity="0.727273" d="M221.009 482.414C357.274 443.994 496.574 207.627 386.564 228.65C298.556 245.468 404.085 487.523 467.851 606.448" stroke="#EAF1FA" stroke-width="0.589333"/>
<path opacity="0.737374" d="M223.314 479.076C357.506 443.885 497.703 214.125 389.52 232.709C302.973 247.575 402.736 487.573 463.436 605.713" stroke="#EAF1FA" stroke-width="0.589333"/>
<path opacity="0.747475" d="M225.69 475.829C357.738 443.784 498.645 220.588 392.34 236.802C307.295 249.774 401.397 487.587 459.079 604.872" stroke="#EAF2FA" stroke-width="0.589333"/>
<path opacity="0.757576" d="M228.136 472.676C357.972 443.689 499.404 227.012 395.025 240.929C311.522 252.062 400.069 487.568 454.781 603.929" stroke="#EBF2FA" stroke-width="0.589333"/>
<path opacity="0.767677" d="M230.647 469.616C358.205 443.602 499.978 233.392 397.573 245.083C315.65 254.435 398.752 487.514 450.543 602.884" stroke="#EBF2FA" stroke-width="0.589333"/>
<path opacity="0.777778" d="M233.223 466.652C358.44 443.521 500.372 239.723 399.987 249.262C319.679 256.892 397.448 487.426 446.371 601.739" stroke="#EBF2FA" stroke-width="0.589333"/>
<path opacity="0.787879" d="M235.86 463.784C358.675 443.446 500.587 246.001 402.264 253.462C323.606 259.43 396.157 487.306 442.265 600.497" stroke="#EBF3FA" stroke-width="0.589333"/>
<path opacity="0.79798" d="M238.555 461.014C358.91 443.38 500.624 252.223 404.405 257.68C327.43 262.046 394.879 487.152 438.226 599.16" stroke="#EBF3FA" stroke-width="0.589333"/>
<path opacity="0.808081" d="M241.306 458.344C359.145 443.319 500.486 258.383 406.41 261.913C331.15 264.737 393.617 486.967 434.258 597.728" stroke="#EBF3FA" stroke-width="0.589333"/>
<path opacity="0.818182" d="M244.111 455.774C359.38 443.266 500.175 264.478 408.28 266.157C334.764 267.501 392.37 486.749 430.362 596.205" stroke="#EBF3FB" stroke-width="0.589333"/>
<path opacity="0.828283" d="M246.968 453.305C359.615 443.22 499.694 270.503 410.015 270.409C338.272 270.334 391.139 486.501 426.541 594.594" stroke="#EBF3FB" stroke-width="0.589333"/>
<path opacity="0.838384" d="M249.872 450.939C359.849 443.181 499.044 276.454 411.614 274.665C341.67 273.233 389.926 486.221 422.796 592.894" stroke="#EBF4FB" stroke-width="0.589333"/>
<path opacity="0.848485" d="M252.821 448.675C360.083 443.148 498.228 282.327 413.078 278.921C344.959 276.196 388.729 485.911 419.129 591.109" stroke="#EBF4FB" stroke-width="0.589333"/>
<path opacity="0.858586" d="M255.814 446.516C360.316 443.122 497.25 288.119 414.409 283.175C348.137 279.219 387.551 485.571 415.542 589.241" stroke="#EBF4FB" stroke-width="0.589333"/>
<path opacity="0.868687" d="M258.845 444.462C360.546 443.104 496.109 293.827 415.604 287.424C351.201 282.301 386.39 485.203 412.035 587.294" stroke="#EBF4FB" stroke-width="0.589333"/>
<path opacity="0.878788" d="M261.913 442.512C360.777 443.09 494.81 299.443 416.667 291.662C354.153 285.437 385.25 484.805 408.613 585.267" stroke="#EBF4FB" stroke-width="0.589333"/>
<path opacity="0.888889" d="M265.018 440.67C361.006 443.085 493.358 304.967 417.599 295.888C356.992 288.624 384.131 484.379 405.276 583.164" stroke="#EBF5FB" stroke-width="0.589333"/>
<path opacity="0.89899" d="M268.153 438.933C361.234 443.085 491.752 310.393 418.398 300.097C359.715 291.86 383.032 483.925 402.025 580.987" stroke="#EBF5FB" stroke-width="0.589333"/>
<path opacity="0.909091" d="M271.316 437.304C361.459 443.092 489.996 315.719 419.066 304.287C362.323 295.141 381.954 483.444 398.862 578.739" stroke="#EBF5FB" stroke-width="0.589333"/>
<path opacity="0.919192" d="M274.505 435.783C361.683 443.106 488.094 320.942 419.604 308.455C364.813 298.466 380.897 482.938 395.788 576.423" stroke="#EBF5FB" stroke-width="0.589333"/>
<path opacity="0.929293" d="M277.719 434.371C361.905 443.126 486.049 326.057 420.015 312.597C367.187 301.83 379.865 482.406 392.807 574.04" stroke="#EBF6FB" stroke-width="0.589333"/>
</g>

<!-- <text x="50" y="200" font-size="20" font-family="Arial" fill="#000000">
  <tspan x="50" dy="0">{name}</tspan>
</text> -->

<g clip-path="url(#clip2_1_121)">

<path d="M102.876 206.115H87.4194C86.9113 206.115 86.4299 206.309 86.0735 206.671L81.2778 211.43C80.9234 211.782 80.7288 212.263 80.7288 212.768V228.138C80.7288 229.181 81.5748 230.03 82.6237 230.03H98.0883C98.5963 230.03 99.0777 229.828 99.4342 229.474L104.222 224.716C104.576 224.353 104.781 223.875 104.781 223.378V208.007C104.779 206.956 103.925 206.115 102.876 206.115ZM99.6616 218.947C99.6616 219.073 99.5591 219.183 99.4239 219.183H91.2358C90.2976 219.183 89.5355 219.941 89.5355 220.873V225.196C89.5355 225.322 89.4249 225.432 89.2897 225.432H86.8622C86.727 225.432 86.6245 225.322 86.6245 225.196V220.871C86.6245 218.34 88.6895 216.288 91.2358 216.288H99.426C99.5612 216.288 99.6636 216.39 99.6636 216.524V218.947H99.6616ZM99.6616 213.851C99.6616 213.977 99.5591 214.087 99.4239 214.087H86.8622C86.727 214.087 86.6245 213.977 86.6245 213.851V211.43C86.6245 211.295 86.727 211.194 86.8622 211.194H99.426C99.5612 211.194 99.6636 211.295 99.6636 211.43V213.851H99.6616Z" fill="#3BA9E0"/>
<path d="M129.279 209.144C129.639 209.144 129.819 209.316 129.819 209.661V211.894C129.819 212.238 129.639 212.411 129.279 212.411H119.08C118.469 212.411 117.96 212.466 117.552 212.575C117.161 212.669 116.847 212.842 116.612 213.092C116.377 213.327 116.205 213.656 116.095 214.079C116.001 214.487 115.954 214.996 115.954 215.607V216.077H129.161C129.506 216.077 129.678 216.249 129.678 216.594V218.45C129.678 218.795 129.506 218.967 129.161 218.967H115.954V225.077C115.954 225.422 115.782 225.594 115.437 225.594H112.899C112.539 225.594 112.359 225.422 112.359 225.077V215.348C112.359 214.22 112.476 213.265 112.711 212.481C112.962 211.698 113.346 211.063 113.863 210.578C114.395 210.076 115.077 209.716 115.907 209.497C116.738 209.262 117.748 209.144 118.939 209.144H129.279Z" fill="#020203"/>
<path d="M134.919 212.693C135.263 212.693 135.436 212.873 135.436 213.233V225.077C135.436 225.422 135.263 225.594 134.919 225.594H132.616C132.271 225.594 132.099 225.422 132.099 225.077V213.233C132.099 212.873 132.271 212.693 132.616 212.693H134.919ZM134.919 207.922C135.263 207.922 135.436 208.094 135.436 208.439V210.672C135.436 211.032 135.263 211.212 134.919 211.212H132.616C132.255 211.212 132.075 211.032 132.075 210.672V208.439C132.075 208.094 132.255 207.922 132.616 207.922H134.919Z" fill="#020203"/>
<path d="M150.676 212.693C151.726 212.693 152.611 212.787 153.332 212.975C154.053 213.147 154.624 213.429 155.047 213.821C155.486 214.197 155.799 214.69 155.987 215.301C156.175 215.897 156.269 216.617 156.269 217.463V225.077C156.269 225.422 156.097 225.594 155.752 225.594H153.449C153.105 225.594 152.932 225.422 152.932 225.077V218.262C152.932 217.777 152.901 217.369 152.838 217.04C152.776 216.696 152.65 216.429 152.462 216.241C152.29 216.038 152.047 215.897 151.734 215.818C151.421 215.724 151.013 215.677 150.512 215.677H144.261C143.759 215.677 143.344 215.724 143.015 215.818C142.686 215.897 142.42 216.038 142.216 216.241C142.028 216.429 141.895 216.696 141.817 217.04C141.738 217.369 141.699 217.777 141.699 218.262V225.077C141.699 225.422 141.527 225.594 141.182 225.594H138.879C138.519 225.594 138.339 225.422 138.339 225.077V217.463C138.339 216.617 138.433 215.897 138.621 215.301C138.809 214.69 139.114 214.197 139.537 213.821C139.976 213.429 140.548 213.147 141.253 212.975C141.973 212.787 142.866 212.693 143.932 212.693H150.676Z" fill="#020203"/>
<path d="M162.328 209.144C162.672 209.144 162.845 209.316 162.845 209.661V215.771H173.843V209.661C173.843 209.316 174.015 209.144 174.36 209.144H176.898C177.258 209.144 177.438 209.316 177.438 209.661V225.077C177.438 225.422 177.258 225.594 176.898 225.594H174.36C174.015 225.594 173.843 225.422 173.843 225.077V218.826H162.845V225.077C162.845 225.422 162.672 225.594 162.328 225.594H159.79C159.429 225.594 159.249 225.422 159.249 225.077V209.661C159.249 209.316 159.429 209.144 159.79 209.144H162.328Z" fill="#020203"/> 
<path d="M192.508 212.693C193.558 212.693 194.443 212.787 195.164 212.975C195.884 213.147 196.456 213.429 196.879 213.821C197.318 214.197 197.631 214.69 197.819 215.301C198.007 215.897 198.101 216.617 198.101 217.463V220.847C198.101 221.693 198.007 222.422 197.819 223.033C197.631 223.628 197.318 224.122 196.879 224.513C196.456 224.889 195.884 225.164 195.164 225.336C194.443 225.508 193.558 225.594 192.508 225.594H185.857C184.792 225.594 183.899 225.508 183.178 225.336C182.473 225.164 181.901 224.889 181.463 224.513C181.04 224.122 180.734 223.628 180.546 223.033C180.358 222.422 180.264 221.693 180.264 220.847V217.463C180.264 216.617 180.358 215.897 180.546 215.301C180.734 214.69 181.04 214.197 181.463 213.821C181.901 213.429 182.473 213.147 183.178 212.975C183.899 212.787 184.792 212.693 185.857 212.693H192.508ZM183.625 220.26C183.625 220.761 183.664 221.176 183.742 221.505C183.821 221.834 183.954 222.101 184.142 222.304C184.346 222.492 184.612 222.633 184.941 222.727C185.27 222.806 185.685 222.845 186.186 222.845H192.179C192.696 222.845 193.119 222.806 193.448 222.727C193.777 222.633 194.036 222.492 194.224 222.304C194.427 222.101 194.568 221.834 194.647 221.505C194.725 221.176 194.764 220.761 194.764 220.26V218.027C194.764 217.542 194.725 217.134 194.647 216.805C194.568 216.476 194.427 216.21 194.224 216.006C194.036 215.803 193.777 215.662 193.448 215.583C193.119 215.505 192.696 215.466 192.179 215.466H186.186C185.685 215.466 185.27 215.505 184.941 215.583C184.612 215.662 184.346 215.803 184.142 216.006C183.954 216.21 183.821 216.476 183.742 216.805C183.664 217.134 183.625 217.542 183.625 218.027V220.26Z" fill="#020203"/>
<path d="M215.754 212.693C216.036 212.693 216.177 212.834 216.177 213.116V214.996C216.177 215.278 216.036 215.419 215.754 215.419H205.155C204.669 215.419 204.333 215.513 204.145 215.701C203.957 215.873 203.863 216.132 203.863 216.476V216.829C203.863 217.142 203.957 217.393 204.145 217.581C204.333 217.753 204.669 217.839 205.155 217.839H213.075C214.391 217.839 215.331 218.113 215.895 218.662C216.459 219.21 216.741 219.986 216.741 220.988V222.304C216.741 222.821 216.678 223.284 216.553 223.691C216.427 224.098 216.216 224.443 215.918 224.725C215.636 225.007 215.26 225.226 214.79 225.383C214.32 225.524 213.741 225.594 213.051 225.594H201.019C200.737 225.594 200.596 225.453 200.596 225.171V223.291C200.596 223.009 200.737 222.868 201.019 222.868H212.158C212.644 222.868 212.981 222.782 213.169 222.61C213.372 222.438 213.474 222.148 213.474 221.74V221.106C213.474 220.792 213.372 220.55 213.169 220.377C212.981 220.205 212.644 220.119 212.158 220.119H204.262C202.946 220.119 202.006 219.852 201.442 219.32C200.878 218.771 200.596 217.98 200.596 216.946V215.912C200.596 215.427 200.659 214.988 200.784 214.596C200.909 214.189 201.113 213.844 201.395 213.562C201.693 213.28 202.076 213.069 202.547 212.928C203.017 212.771 203.596 212.693 204.286 212.693H215.754Z" fill="#020203"/>
<path d="M220.858 212.693V209.591C220.858 209.246 221.03 209.074 221.375 209.074H223.702C224.046 209.074 224.219 209.246 224.219 209.591V212.693H228.331C228.613 212.693 228.754 212.834 228.754 213.116V215.043C228.754 215.325 228.613 215.466 228.331 215.466H224.219V220.918C224.219 221.576 224.352 222.062 224.618 222.375C224.884 222.673 225.409 222.821 226.193 222.821H228.472C228.754 222.821 228.895 222.962 228.895 223.244V225.171C228.895 225.453 228.754 225.594 228.472 225.594H225.629C224.689 225.594 223.913 225.508 223.302 225.336C222.691 225.164 222.198 224.889 221.822 224.513C221.461 224.137 221.211 223.652 221.07 223.056C220.929 222.461 220.858 221.748 220.858 220.918V215.466H218.626C218.344 215.466 218.203 215.325 218.203 215.043V213.116C218.203 212.834 218.344 212.693 218.626 212.693H220.858Z" fill="#020203"/>

</g>

<rect x="115.309" y="491.877" width="78.9707" height="2.94667" rx="1.47333" fill="#1C1D2B"/>
<path opacity="0.35" d="M242.311 32.7886C242.311 32.0834 242.882 31.5117 243.587 31.5117H253.41C254.115 31.5117 254.687 32.0834 254.687 32.7886V36.3246C254.687 37.0298 254.115 37.6015 253.41 37.6015H243.587C242.882 37.6015 242.311 37.0298 242.311 36.3246V32.7886Z" stroke="black" stroke-width="0.589333"/>
<path opacity="0.4" d="M255.57 33.3784V35.7358C256.044 35.5361 256.353 35.0717 256.353 34.5571C256.353 34.0425 256.044 33.5781 255.57 33.3784Z" fill="black"/>
<path d="M243.194 33.1815C243.194 32.7476 243.546 32.3958 243.98 32.3958H253.017C253.451 32.3958 253.802 32.7476 253.802 33.1815V35.9318C253.802 36.3657 253.451 36.7175 253.017 36.7175H243.98C243.546 36.7175 243.194 36.3657 243.194 35.9318V33.1815Z" fill="black"/>
<path fill-rule="evenodd" clip-rule="evenodd" d="M234.549 32.5562C235.855 32.5563 237.111 33.0581 238.057 33.9578C238.129 34.0273 238.243 34.0264 238.313 33.9559L238.994 33.2683C239.03 33.2325 239.049 33.1841 239.049 33.1336C239.049 33.0832 239.028 33.035 238.992 32.9996C236.508 30.619 232.589 30.619 230.105 32.9996C230.069 33.0349 230.049 33.0832 230.049 33.1336C230.048 33.184 230.068 33.2325 230.104 33.2683L230.785 33.9559C230.855 34.0265 230.969 34.0274 231.04 33.9578C231.987 33.058 233.243 32.5562 234.549 32.5562ZM234.549 34.793C235.267 34.793 235.959 35.0597 236.49 35.5413C236.562 35.6096 236.676 35.6081 236.746 35.5379L237.426 34.8504C237.462 34.8143 237.482 34.7654 237.481 34.7145C237.481 34.6637 237.46 34.6152 237.423 34.5799C235.804 33.0733 233.296 33.0733 231.676 34.5799C231.64 34.6152 231.619 34.6637 231.618 34.7146C231.618 34.7654 231.638 34.8144 231.674 34.8504L232.354 35.5379C232.424 35.6081 232.537 35.6096 232.609 35.5413C233.141 35.06 233.832 34.7933 234.549 34.793ZM235.912 36.2979C235.913 36.3489 235.893 36.3981 235.857 36.4338L234.68 37.6217C234.645 37.6566 234.598 37.6763 234.549 37.6763C234.5 37.6763 234.453 37.6566 234.418 37.6217L233.241 36.4338C233.205 36.3981 233.185 36.3489 233.186 36.2979C233.187 36.2469 233.209 36.1986 233.247 36.1645C233.998 35.5286 235.099 35.5286 235.851 36.1645C235.889 36.1987 235.911 36.247 235.912 36.2979Z" fill="black"/>
<path fill-rule="evenodd" clip-rule="evenodd" d="M226.497 31.4125H225.908C225.582 31.4125 225.319 31.6763 225.319 32.0018V37.1094C225.319 37.4348 225.582 37.6987 225.908 37.6987H226.497C226.823 37.6987 227.087 37.4348 227.087 37.1094V32.0018C227.087 31.6763 226.823 31.4125 226.497 31.4125ZM223.157 32.787H223.746C224.072 32.787 224.335 33.0509 224.335 33.3763V37.1088C224.335 37.4343 224.072 37.6981 223.746 37.6981H223.157C222.831 37.6981 222.567 37.4343 222.567 37.1088V33.3763C222.567 33.0509 222.831 32.787 223.157 32.787ZM220.997 34.1635H220.407C220.082 34.1635 219.818 34.4274 219.818 34.7528V37.1102C219.818 37.4357 220.082 37.6995 220.407 37.6995H220.997C221.322 37.6995 221.586 37.4357 221.586 37.1102V34.7528C221.586 34.4274 221.322 34.1635 220.997 34.1635ZM218.246 35.3421H217.657C217.331 35.3421 217.067 35.606 217.067 35.9314V37.1101C217.067 37.4356 217.331 37.6994 217.657 37.6994H218.246C218.572 37.6994 218.835 37.4356 218.835 37.1101V35.9314C218.835 35.606 218.572 35.3421 218.246 35.3421Z" fill="black"/>
<path d="M65.9946 37.6522C67.5788 37.6522 68.5197 36.4134 68.5197 34.3156C68.5197 33.5257 68.3687 32.861 68.0795 32.3474C67.6608 31.5488 66.9399 31.1172 66.0292 31.1172C64.6738 31.1172 63.7156 32.0279 63.7156 33.3056C63.7156 34.5056 64.5789 35.3775 65.7659 35.3775C66.4953 35.3775 67.0867 35.0365 67.3802 34.4451H67.3932C67.3932 34.4451 67.4104 34.4451 67.4147 34.4451C67.4234 34.4451 67.4536 34.4451 67.4536 34.4451C67.4536 35.8696 66.914 36.7199 66.0033 36.7199C65.468 36.7199 65.0537 36.4264 64.9112 35.9559H63.8019C63.9875 36.9789 64.8551 37.6522 65.9946 37.6522ZM66.0335 34.4926C65.317 34.4926 64.8076 33.9833 64.8076 33.2711C64.8076 32.5761 65.3429 32.0452 66.0378 32.0452C66.7327 32.0452 67.268 32.5848 67.268 33.2883C67.268 33.9833 66.7457 34.4926 66.0335 34.4926Z" fill="black"/>
<path d="M70.3414 37.5918C70.7515 37.5918 71.0321 37.2983 71.0321 36.9098C71.0321 36.517 70.7515 36.2278 70.3414 36.2278C69.9357 36.2278 69.6508 36.517 69.6508 36.9098C69.6508 37.2983 69.9357 37.5918 70.3414 37.5918ZM70.3414 34.3545C70.7515 34.3545 71.0321 34.0653 71.0321 33.6768C71.0321 33.284 70.7515 32.9948 70.3414 32.9948C69.9357 32.9948 69.6508 33.284 69.6508 33.6768C69.6508 34.0653 69.9357 34.3545 70.3414 34.3545Z" fill="black"/>
<path d="M75.0724 37.5012H76.1385V36.34H76.9802V35.3991H76.1385V31.2726H74.5674C73.4667 32.9301 72.5905 34.3156 72.0293 35.3473V36.34H75.0724V37.5012ZM73.0609 35.3602C73.7861 34.0826 74.4336 33.0596 75.0292 32.179H75.0897V35.425H73.0609V35.3602Z" fill="black"/>
<path d="M79.3544 37.5012H80.4681V31.2726H79.3587L77.7315 32.4121V33.4826L79.2811 32.3948H79.3544V37.5012Z" fill="black"/>
<rect x="58.1436" y="406.424" width="192.712" height="27.1093" rx="2.94667" fill="#1C1D2B"/>
<path d="M141.356 424.352V417.621H142.783V423.173H145.513V424.352H141.356ZM151.255 421.769C151.255 422.199 151.197 422.579 151.08 422.911C150.966 423.242 150.799 423.523 150.578 423.753C150.36 423.98 150.096 424.152 149.786 424.269C149.479 424.386 149.132 424.444 148.746 424.444C148.383 424.444 148.05 424.386 147.746 424.269C147.446 424.152 147.183 423.98 146.959 423.753C146.738 423.523 146.566 423.242 146.443 422.911C146.324 422.579 146.264 422.199 146.264 421.769C146.264 421.198 146.365 420.715 146.568 420.319C146.77 419.923 147.059 419.622 147.433 419.416C147.808 419.21 148.254 419.108 148.773 419.108C149.255 419.108 149.682 419.21 150.053 419.416C150.428 419.622 150.721 419.923 150.933 420.319C151.147 420.715 151.255 421.198 151.255 421.769ZM147.696 421.769C147.696 422.107 147.733 422.39 147.806 422.621C147.88 422.851 147.995 423.024 148.152 423.141C148.308 423.258 148.512 423.316 148.764 423.316C149.013 423.316 149.214 423.258 149.367 423.141C149.524 423.024 149.637 422.851 149.708 422.621C149.782 422.39 149.818 422.107 149.818 421.769C149.818 421.428 149.782 421.146 149.708 420.922C149.637 420.695 149.524 420.524 149.367 420.411C149.211 420.297 149.006 420.24 148.755 420.24C148.383 420.24 148.113 420.368 147.944 420.622C147.779 420.877 147.696 421.259 147.696 421.769ZM153.921 426.617C153.202 426.617 152.653 426.491 152.272 426.24C151.895 425.991 151.706 425.641 151.706 425.19C151.706 424.88 151.803 424.62 151.996 424.412C152.189 424.203 152.473 424.054 152.848 423.965C152.704 423.904 152.578 423.804 152.47 423.666C152.363 423.525 152.309 423.376 152.309 423.219C152.309 423.023 152.366 422.86 152.48 422.731C152.593 422.599 152.757 422.47 152.972 422.344C152.702 422.228 152.487 422.041 152.328 421.783C152.171 421.525 152.093 421.221 152.093 420.871C152.093 420.497 152.174 420.179 152.337 419.918C152.503 419.654 152.742 419.453 153.055 419.315C153.371 419.177 153.755 419.108 154.206 419.108C154.301 419.108 154.412 419.114 154.538 419.126C154.663 419.138 154.779 419.152 154.883 419.168C154.99 419.183 155.062 419.195 155.099 419.204H156.895V419.918L156.089 420.125C156.163 420.239 156.218 420.36 156.255 420.489C156.292 420.618 156.31 420.754 156.31 420.899C156.31 421.451 156.117 421.882 155.73 422.192C155.346 422.499 154.812 422.653 154.128 422.653C153.965 422.644 153.812 422.631 153.667 422.616C153.597 422.671 153.543 422.73 153.506 422.791C153.469 422.852 153.451 422.917 153.451 422.984C153.451 423.052 153.479 423.109 153.534 423.155C153.592 423.198 153.678 423.231 153.792 423.256C153.908 423.278 154.053 423.288 154.225 423.288H155.099C155.664 423.288 156.094 423.409 156.388 423.652C156.686 423.894 156.835 424.251 156.835 424.72C156.835 425.322 156.583 425.788 156.08 426.12C155.58 426.451 154.86 426.617 153.921 426.617ZM153.981 425.701C154.315 425.701 154.602 425.669 154.841 425.604C155.084 425.543 155.27 425.454 155.399 425.337C155.528 425.224 155.592 425.087 155.592 424.927C155.592 424.798 155.554 424.696 155.477 424.619C155.403 424.545 155.29 424.493 155.136 424.462C154.986 424.432 154.792 424.416 154.556 424.416H153.829C153.657 424.416 153.502 424.444 153.364 424.499C153.228 424.554 153.121 424.631 153.041 424.729C152.961 424.831 152.922 424.947 152.922 425.079C152.922 425.273 153.014 425.425 153.198 425.535C153.385 425.646 153.646 425.701 153.981 425.701ZM154.206 421.796C154.47 421.796 154.663 421.715 154.786 421.552C154.909 421.39 154.97 421.169 154.97 420.889C154.97 420.579 154.906 420.348 154.777 420.194C154.651 420.038 154.461 419.959 154.206 419.959C153.948 419.959 153.755 420.038 153.626 420.194C153.497 420.348 153.433 420.579 153.433 420.889C153.433 421.169 153.496 421.39 153.621 421.552C153.75 421.715 153.945 421.796 154.206 421.796ZM160.307 424.352V417.621H161.734V424.352H160.307ZM166.241 419.108C166.791 419.108 167.233 419.258 167.567 419.559C167.902 419.857 168.069 420.335 168.069 420.995V424.352H166.665V421.345C166.665 420.977 166.597 420.699 166.462 420.512C166.33 420.325 166.122 420.231 165.836 420.231C165.407 420.231 165.113 420.377 164.957 420.668C164.8 420.96 164.722 421.381 164.722 421.93V424.352H163.318V419.204H164.391L164.579 419.863H164.658C164.768 419.685 164.905 419.54 165.067 419.43C165.233 419.319 165.416 419.238 165.615 419.186C165.818 419.134 166.027 419.108 166.241 419.108Z" fill="white"/>
<path d="M95.654 452.692C95.654 453.355 95.5331 453.91 95.2914 454.356C95.0497 454.799 94.6992 455.133 94.2399 455.359C93.7833 455.582 93.2287 455.693 92.5761 455.693H90.9767V449.803H92.7533C93.3523 449.803 93.8679 449.913 94.3003 450.134C94.7328 450.351 95.0658 450.675 95.2995 451.104C95.5358 451.532 95.654 452.061 95.654 452.692ZM94.9328 452.716C94.9328 452.187 94.8442 451.75 94.667 451.407C94.4924 451.063 94.2345 450.808 93.8935 450.641C93.555 450.472 93.1401 450.387 92.6486 450.387H91.6616V455.105H92.4955C93.3066 455.105 93.9149 454.905 94.3205 454.505C94.7287 454.104 94.9328 453.508 94.9328 452.716ZM100.67 453.477C100.67 453.84 100.623 454.164 100.529 454.448C100.435 454.733 100.299 454.973 100.122 455.169C99.9445 455.365 99.7296 455.516 99.4772 455.621C99.2274 455.723 98.944 455.774 98.6271 455.774C98.3317 455.774 98.0604 455.723 97.8133 455.621C97.5689 455.516 97.3567 455.365 97.1768 455.169C96.9995 454.973 96.8612 454.733 96.7618 454.448C96.6652 454.164 96.6168 453.84 96.6168 453.477C96.6168 452.994 96.6987 452.583 96.8626 452.245C97.0264 451.904 97.2601 451.644 97.5636 451.467C97.8697 451.287 98.2336 451.197 98.6553 451.197C99.0582 451.197 99.41 451.287 99.7108 451.467C100.014 451.647 100.249 451.908 100.416 452.249C100.585 452.587 100.67 452.997 100.67 453.477ZM97.3097 453.477C97.3097 453.832 97.3567 454.139 97.4507 454.4C97.5448 454.66 97.6898 454.862 97.8858 455.004C98.0819 455.147 98.3344 455.218 98.6432 455.218C98.9494 455.218 99.2005 455.147 99.3966 455.004C99.5953 454.862 99.7417 454.66 99.8357 454.4C99.9297 454.139 99.9767 453.832 99.9767 453.477C99.9767 453.126 99.9297 452.822 99.8357 452.567C99.7417 452.309 99.5967 452.11 99.4006 451.971C99.2046 451.831 98.9507 451.761 98.6392 451.761C98.1799 451.761 97.8429 451.913 97.628 452.216C97.4158 452.52 97.3097 452.94 97.3097 453.477ZM103.917 451.197C104.44 451.197 104.837 451.326 105.105 451.584C105.374 451.839 105.508 452.25 105.508 452.817V455.693H104.847V452.861C104.847 452.493 104.763 452.218 104.594 452.035C104.427 451.852 104.171 451.761 103.824 451.761C103.335 451.761 102.991 451.899 102.793 452.176C102.594 452.453 102.495 452.854 102.495 453.381V455.693H101.826V451.278H102.366L102.466 451.914H102.503C102.597 451.758 102.716 451.628 102.861 451.523C103.006 451.416 103.169 451.335 103.349 451.282C103.529 451.225 103.718 451.197 103.917 451.197ZM107.45 449.803L107.297 451.93H106.874L106.725 449.803H107.45ZM110.125 455.226C110.235 455.226 110.348 455.216 110.463 455.198C110.579 455.179 110.673 455.156 110.745 455.129V455.649C110.667 455.684 110.559 455.713 110.419 455.737C110.282 455.762 110.148 455.774 110.016 455.774C109.782 455.774 109.57 455.733 109.38 455.653C109.189 455.57 109.036 455.43 108.92 455.234C108.807 455.038 108.751 454.767 108.751 454.42V451.801H108.123V451.475L108.755 451.213L109.021 450.254H109.424V451.278H110.717V451.801H109.424V454.4C109.424 454.677 109.487 454.883 109.613 455.02C109.742 455.157 109.913 455.226 110.125 455.226ZM114.452 449.425V451.298C114.452 451.405 114.449 451.514 114.444 451.624C114.438 451.732 114.429 451.831 114.415 451.922H114.46C114.551 451.767 114.666 451.636 114.806 451.532C114.948 451.424 115.11 451.344 115.29 451.29C115.47 451.233 115.66 451.205 115.862 451.205C116.216 451.205 116.512 451.262 116.748 451.374C116.987 451.487 117.166 451.662 117.284 451.898C117.405 452.134 117.465 452.441 117.465 452.817V455.693H116.804V452.861C116.804 452.493 116.72 452.218 116.551 452.035C116.384 451.852 116.128 451.761 115.781 451.761C115.453 451.761 115.192 451.824 114.995 451.951C114.802 452.074 114.662 452.257 114.577 452.498C114.493 452.74 114.452 453.036 114.452 453.385V455.693H113.783V449.425H114.452ZM120.495 451.205C121.021 451.205 121.412 451.323 121.667 451.56C121.922 451.796 122.05 452.173 122.05 452.692V455.693H121.562L121.433 455.04H121.401C121.277 455.202 121.149 455.337 121.014 455.447C120.88 455.555 120.724 455.637 120.547 455.693C120.372 455.747 120.158 455.774 119.902 455.774C119.634 455.774 119.395 455.727 119.185 455.633C118.978 455.539 118.815 455.396 118.694 455.206C118.576 455.015 118.517 454.773 118.517 454.48C118.517 454.04 118.691 453.702 119.04 453.465C119.389 453.229 119.921 453.1 120.636 453.079L121.397 453.046V452.776C121.397 452.395 121.315 452.128 121.151 451.975C120.987 451.822 120.756 451.745 120.458 451.745C120.227 451.745 120.007 451.779 119.798 451.846C119.588 451.913 119.389 451.992 119.201 452.083L118.996 451.576C119.195 451.474 119.423 451.386 119.681 451.314C119.939 451.241 120.21 451.205 120.495 451.205ZM121.389 453.518L120.716 453.546C120.166 453.567 119.778 453.657 119.552 453.816C119.326 453.974 119.213 454.198 119.213 454.489C119.213 454.741 119.29 454.928 119.443 455.049C119.596 455.169 119.799 455.23 120.051 455.23C120.444 455.23 120.765 455.121 121.014 454.904C121.264 454.686 121.389 454.36 121.389 453.925V453.518ZM124.398 455.693L122.722 451.278H123.44L124.41 453.949C124.478 454.131 124.546 454.333 124.616 454.553C124.686 454.773 124.734 454.951 124.761 455.085H124.789C124.821 454.951 124.875 454.773 124.95 454.553C125.025 454.33 125.094 454.129 125.156 453.949L126.127 451.278H126.844L125.164 455.693H124.398ZM129.253 451.197C129.629 451.197 129.951 451.28 130.22 451.447C130.488 451.613 130.694 451.847 130.836 452.148C130.978 452.446 131.05 452.795 131.05 453.195V453.61H128C128.008 454.129 128.137 454.523 128.387 454.795C128.636 455.066 128.988 455.202 129.442 455.202C129.722 455.202 129.969 455.176 130.183 455.125C130.398 455.074 130.621 454.999 130.852 454.899V455.488C130.629 455.587 130.408 455.66 130.188 455.705C129.97 455.751 129.712 455.774 129.414 455.774C128.99 455.774 128.619 455.688 128.302 455.516C127.988 455.341 127.743 455.086 127.569 454.75C127.394 454.415 127.307 454.004 127.307 453.518C127.307 453.042 127.386 452.631 127.545 452.285C127.706 451.936 127.931 451.667 128.222 451.479C128.514 451.291 128.858 451.197 129.253 451.197ZM129.245 451.745C128.888 451.745 128.603 451.862 128.391 452.096C128.179 452.329 128.052 452.656 128.012 453.074H130.349C130.346 452.811 130.304 452.58 130.224 452.382C130.146 452.18 130.026 452.024 129.865 451.914C129.704 451.801 129.497 451.745 129.245 451.745ZM135.981 451.205C136.507 451.205 136.898 451.323 137.153 451.56C137.408 451.796 137.536 452.173 137.536 452.692V455.693H137.048L136.919 455.04H136.887C136.764 455.202 136.635 455.337 136.5 455.447C136.366 455.555 136.21 455.637 136.033 455.693C135.859 455.747 135.644 455.774 135.389 455.774C135.12 455.774 134.881 455.727 134.671 455.633C134.465 455.539 134.301 455.396 134.18 455.206C134.062 455.015 134.003 454.773 134.003 454.48C134.003 454.04 134.177 453.702 134.526 453.465C134.876 453.229 135.407 453.1 136.122 453.079L136.883 453.046V452.776C136.883 452.395 136.801 452.128 136.637 451.975C136.474 451.822 136.243 451.745 135.944 451.745C135.713 451.745 135.493 451.779 135.284 451.846C135.074 451.913 134.876 451.992 134.688 452.083L134.482 451.576C134.681 451.474 134.909 451.386 135.167 451.314C135.425 451.241 135.696 451.205 135.981 451.205ZM136.875 453.518L136.202 453.546C135.652 453.567 135.264 453.657 135.038 453.816C134.812 453.974 134.7 454.198 134.7 454.489C134.7 454.741 134.776 454.928 134.929 455.049C135.082 455.169 135.285 455.23 135.538 455.23C135.93 455.23 136.251 455.121 136.5 454.904C136.75 454.686 136.875 454.36 136.875 453.925V453.518ZM141.004 451.197C141.528 451.197 141.924 451.326 142.193 451.584C142.461 451.839 142.596 452.25 142.596 452.817V455.693H141.935V452.861C141.935 452.493 141.85 452.218 141.681 452.035C141.515 451.852 141.258 451.761 140.912 451.761C140.423 451.761 140.079 451.899 139.88 452.176C139.682 452.453 139.582 452.854 139.582 453.381V455.693H138.914V451.278H139.453L139.554 451.914H139.59C139.684 451.758 139.804 451.628 139.949 451.523C140.094 451.416 140.256 451.335 140.436 451.282C140.616 451.225 140.806 451.197 141.004 451.197ZM147.769 451.205C148.295 451.205 148.686 451.323 148.941 451.56C149.196 451.796 149.324 452.173 149.324 452.692V455.693H148.836L148.707 455.04H148.675C148.551 455.202 148.423 455.337 148.288 455.447C148.154 455.555 147.998 455.637 147.821 455.693C147.646 455.747 147.431 455.774 147.176 455.774C146.908 455.774 146.669 455.727 146.459 455.633C146.252 455.539 146.089 455.396 145.968 455.206C145.85 455.015 145.79 454.773 145.79 454.48C145.79 454.04 145.965 453.702 146.314 453.465C146.663 453.229 147.195 453.1 147.91 453.079L148.671 453.046V452.776C148.671 452.395 148.589 452.128 148.425 451.975C148.261 451.822 148.03 451.745 147.732 451.745C147.501 451.745 147.281 451.779 147.072 451.846C146.862 451.913 146.663 451.992 146.475 452.083L146.27 451.576C146.469 451.474 146.697 451.386 146.955 451.314C147.213 451.241 147.484 451.205 147.769 451.205ZM148.663 453.518L147.99 453.546C147.44 453.567 147.051 453.657 146.826 453.816C146.6 453.974 146.487 454.198 146.487 454.489C146.487 454.741 146.564 454.928 146.717 455.049C146.87 455.169 147.073 455.23 147.325 455.23C147.717 455.23 148.038 455.121 148.288 454.904C148.538 454.686 148.663 454.36 148.663 453.925V453.518ZM152.47 455.774C152.072 455.774 151.722 455.692 151.418 455.528C151.115 455.364 150.879 455.114 150.709 454.779C150.54 454.443 150.456 454.02 150.456 453.51C150.456 452.975 150.544 452.539 150.722 452.2C150.901 451.859 151.149 451.607 151.463 451.443C151.777 451.279 152.134 451.197 152.534 451.197C152.755 451.197 152.967 451.22 153.171 451.266C153.378 451.309 153.547 451.364 153.679 451.431L153.477 451.991C153.343 451.937 153.187 451.889 153.01 451.846C152.835 451.803 152.671 451.781 152.518 451.781C152.212 451.781 151.957 451.847 151.753 451.979C151.551 452.11 151.4 452.304 151.298 452.559C151.198 452.814 151.149 453.128 151.149 453.502C151.149 453.859 151.197 454.164 151.294 454.416C151.393 454.668 151.539 454.862 151.733 454.996C151.929 455.128 152.173 455.194 152.466 455.194C152.7 455.194 152.91 455.169 153.098 455.121C153.286 455.07 153.457 455.011 153.61 454.944V455.54C153.462 455.615 153.297 455.673 153.115 455.713C152.935 455.754 152.72 455.774 152.47 455.774ZM156.426 455.774C156.029 455.774 155.678 455.692 155.375 455.528C155.071 455.364 154.835 455.114 154.666 454.779C154.496 454.443 154.412 454.02 154.412 453.51C154.412 452.975 154.5 452.539 154.678 452.2C154.858 451.859 155.105 451.607 155.419 451.443C155.733 451.279 156.09 451.197 156.491 451.197C156.711 451.197 156.923 451.22 157.127 451.266C157.334 451.309 157.503 451.364 157.635 451.431L157.433 451.991C157.299 451.937 157.143 451.889 156.966 451.846C156.791 451.803 156.628 451.781 156.474 451.781C156.168 451.781 155.913 451.847 155.709 451.979C155.508 452.11 155.356 452.304 155.254 452.559C155.154 452.814 155.105 453.128 155.105 453.502C155.105 453.859 155.153 454.164 155.25 454.416C155.349 454.668 155.495 454.862 155.689 454.996C155.885 455.128 156.129 455.194 156.422 455.194C156.656 455.194 156.867 455.169 157.055 455.121C157.243 455.07 157.413 455.011 157.566 454.944V455.54C157.418 455.615 157.253 455.673 157.071 455.713C156.891 455.754 156.676 455.774 156.426 455.774ZM162.421 453.477C162.421 453.84 162.374 454.164 162.28 454.448C162.186 454.733 162.05 454.973 161.873 455.169C161.696 455.365 161.481 455.516 161.228 455.621C160.978 455.723 160.695 455.774 160.378 455.774C160.083 455.774 159.811 455.723 159.564 455.621C159.32 455.516 159.108 455.365 158.928 455.169C158.751 454.973 158.612 454.733 158.513 454.448C158.416 454.164 158.368 453.84 158.368 453.477C158.368 452.994 158.45 452.583 158.614 452.245C158.777 451.904 159.011 451.644 159.315 451.467C159.621 451.287 159.985 451.197 160.406 451.197C160.809 451.197 161.161 451.287 161.462 451.467C161.765 451.647 162 451.908 162.167 452.249C162.336 452.587 162.421 452.997 162.421 453.477ZM159.061 453.477C159.061 453.832 159.108 454.139 159.202 454.4C159.296 454.66 159.441 454.862 159.637 455.004C159.833 455.147 160.085 455.218 160.394 455.218C160.7 455.218 160.952 455.147 161.148 455.004C161.346 454.862 161.493 454.66 161.587 454.4C161.681 454.139 161.728 453.832 161.728 453.477C161.728 453.126 161.681 452.822 161.587 452.567C161.493 452.309 161.348 452.11 161.152 451.971C160.956 451.831 160.702 451.761 160.39 451.761C159.931 451.761 159.594 451.913 159.379 452.216C159.167 452.52 159.061 452.94 159.061 453.477ZM167.223 451.278V455.693H166.675L166.578 455.073H166.542C166.451 455.226 166.333 455.355 166.187 455.459C166.042 455.564 165.879 455.642 165.696 455.693C165.516 455.747 165.324 455.774 165.12 455.774C164.771 455.774 164.478 455.717 164.242 455.604C164.005 455.492 163.827 455.317 163.706 455.081C163.588 454.844 163.529 454.541 163.529 454.17V451.278H164.205V454.122C164.205 454.49 164.289 454.765 164.455 454.948C164.622 455.128 164.875 455.218 165.217 455.218C165.544 455.218 165.805 455.156 165.998 455.032C166.194 454.909 166.335 454.728 166.421 454.489C166.507 454.247 166.55 453.951 166.55 453.602V451.278H167.223ZM170.728 451.197C171.252 451.197 171.648 451.326 171.916 451.584C172.185 451.839 172.319 452.25 172.319 452.817V455.693H171.658V452.861C171.658 452.493 171.574 452.218 171.405 452.035C171.238 451.852 170.982 451.761 170.635 451.761C170.146 451.761 169.803 451.899 169.604 452.176C169.405 452.453 169.306 452.854 169.306 453.381V455.693H168.637V451.278H169.177L169.277 451.914H169.314C169.408 451.758 169.527 451.628 169.672 451.523C169.817 451.416 169.98 451.335 170.16 451.282C170.34 451.225 170.529 451.197 170.728 451.197ZM175.123 455.226C175.233 455.226 175.346 455.216 175.461 455.198C175.577 455.179 175.671 455.156 175.743 455.129V455.649C175.666 455.684 175.557 455.713 175.417 455.737C175.28 455.762 175.146 455.774 175.014 455.774C174.781 455.774 174.568 455.733 174.378 455.653C174.187 455.57 174.034 455.43 173.918 455.234C173.806 455.038 173.749 454.767 173.749 454.42V451.801H173.121V451.475L173.753 451.213L174.019 450.254H174.422V451.278H175.715V451.801H174.422V454.4C174.422 454.677 174.485 454.883 174.611 455.02C174.74 455.157 174.911 455.226 175.123 455.226ZM177.093 454.057V453.848C177.093 453.633 177.113 453.449 177.153 453.296C177.194 453.14 177.264 452.995 177.363 452.861C177.465 452.727 177.606 452.584 177.786 452.434C177.995 452.259 178.161 452.112 178.281 451.991C178.405 451.867 178.494 451.744 178.547 451.62C178.601 451.497 178.628 451.348 178.628 451.173C178.628 450.894 178.538 450.68 178.358 450.532C178.178 450.382 177.924 450.307 177.597 450.307C177.331 450.307 177.094 450.34 176.888 450.408C176.681 450.475 176.482 450.555 176.291 450.649L176.058 450.109C176.278 449.994 176.517 449.9 176.775 449.827C177.033 449.755 177.32 449.719 177.637 449.719C178.155 449.719 178.557 449.848 178.841 450.105C179.126 450.361 179.269 450.712 179.269 451.161C179.269 451.411 179.228 451.624 179.148 451.801C179.067 451.976 178.953 452.137 178.805 452.285C178.657 452.43 178.483 452.584 178.281 452.748C178.104 452.899 177.969 453.032 177.875 453.147C177.781 453.26 177.716 453.377 177.681 453.498C177.646 453.616 177.629 453.758 177.629 453.925V454.057H177.093ZM176.916 455.274C176.916 455.086 176.96 454.953 177.049 454.875C177.137 454.795 177.251 454.754 177.391 454.754C177.523 454.754 177.634 454.795 177.726 454.875C177.82 454.953 177.867 455.086 177.867 455.274C177.867 455.459 177.82 455.595 177.726 455.681C177.634 455.764 177.523 455.806 177.391 455.806C177.251 455.806 177.137 455.764 177.049 455.681C176.96 455.595 176.916 455.459 176.916 455.274ZM186.458 453.824C186.458 454.223 186.361 454.57 186.168 454.864C185.974 455.159 185.692 455.386 185.321 455.546C184.952 455.705 184.504 455.785 183.976 455.785C183.743 455.785 183.514 455.77 183.29 455.739C183.069 455.708 182.856 455.664 182.65 455.606C182.448 455.544 182.254 455.469 182.07 455.38V454.054C182.389 454.195 182.721 454.323 183.065 454.436C183.408 454.55 183.749 454.607 184.087 454.607C184.32 454.607 184.507 454.576 184.648 454.514C184.793 454.453 184.897 454.369 184.962 454.261C185.026 454.154 185.058 454.031 185.058 453.893C185.058 453.724 185.001 453.58 184.888 453.46C184.774 453.34 184.618 453.228 184.418 453.124C184.222 453.02 183.999 452.908 183.751 452.788C183.594 452.714 183.424 452.625 183.24 452.521C183.055 452.413 182.88 452.283 182.715 452.129C182.549 451.976 182.412 451.79 182.305 451.572C182.201 451.351 182.148 451.087 182.148 450.78C182.148 450.378 182.24 450.035 182.425 449.749C182.609 449.464 182.871 449.246 183.212 449.095C183.556 448.942 183.961 448.865 184.427 448.865C184.777 448.865 185.11 448.907 185.427 448.989C185.746 449.069 186.079 449.186 186.426 449.339L185.965 450.449C185.655 450.323 185.377 450.226 185.132 450.159C184.886 450.088 184.636 450.053 184.381 450.053C184.203 450.053 184.051 450.082 183.926 450.14C183.8 450.196 183.705 450.276 183.64 450.38C183.576 450.481 183.543 450.599 183.543 450.734C183.543 450.894 183.59 451.029 183.682 451.14C183.777 451.247 183.918 451.351 184.105 451.453C184.295 451.554 184.532 451.672 184.814 451.807C185.158 451.97 185.451 452.14 185.694 452.318C185.939 452.493 186.128 452.7 186.26 452.94C186.392 453.176 186.458 453.471 186.458 453.824ZM188.972 450.546V455.693H187.568V450.546H188.972ZM188.272 448.529C188.481 448.529 188.66 448.578 188.811 448.676C188.961 448.772 189.036 448.951 189.036 449.215C189.036 449.476 188.961 449.657 188.811 449.758C188.66 449.857 188.481 449.906 188.272 449.906C188.06 449.906 187.879 449.857 187.729 449.758C187.581 449.657 187.508 449.476 187.508 449.215C187.508 448.951 187.581 448.772 187.729 448.676C187.879 448.578 188.06 448.529 188.272 448.529ZM191.955 457.958C191.237 457.958 190.688 457.833 190.307 457.581C189.929 457.332 189.741 456.982 189.741 456.531C189.741 456.221 189.837 455.962 190.031 455.753C190.224 455.544 190.508 455.395 190.883 455.306C190.738 455.245 190.612 455.145 190.505 455.007C190.398 454.866 190.344 454.717 190.344 454.56C190.344 454.364 190.401 454.201 190.514 454.072C190.628 453.94 190.792 453.812 191.007 453.686C190.737 453.569 190.522 453.382 190.362 453.124C190.206 452.866 190.127 452.562 190.127 452.212C190.127 451.838 190.209 451.52 190.371 451.259C190.537 450.995 190.777 450.794 191.09 450.656C191.406 450.518 191.79 450.449 192.241 450.449C192.336 450.449 192.446 450.455 192.572 450.467C192.698 450.48 192.813 450.493 192.918 450.509C193.025 450.524 193.097 450.536 193.134 450.546H194.93V451.259L194.124 451.466C194.198 451.58 194.253 451.701 194.29 451.83C194.326 451.959 194.345 452.096 194.345 452.24C194.345 452.792 194.151 453.224 193.765 453.534C193.381 453.841 192.847 453.994 192.162 453.994C192 453.985 191.846 453.973 191.702 453.957C191.631 454.013 191.578 454.071 191.541 454.132C191.504 454.194 191.486 454.258 191.486 454.326C191.486 454.393 191.513 454.45 191.569 454.496C191.627 454.539 191.713 454.573 191.826 454.597C191.943 454.619 192.087 454.63 192.259 454.63H193.134C193.699 454.63 194.128 454.751 194.423 454.993C194.721 455.236 194.87 455.592 194.87 456.061C194.87 456.663 194.618 457.13 194.115 457.461C193.614 457.793 192.895 457.958 191.955 457.958ZM192.015 457.042C192.35 457.042 192.637 457.01 192.876 456.945C193.119 456.884 193.304 456.795 193.433 456.678C193.562 456.565 193.627 456.428 193.627 456.269C193.627 456.14 193.588 456.037 193.511 455.96C193.438 455.886 193.324 455.834 193.171 455.804C193.02 455.773 192.827 455.758 192.591 455.758H191.863C191.691 455.758 191.536 455.785 191.398 455.84C191.263 455.896 191.156 455.972 191.076 456.071C190.996 456.172 190.956 456.289 190.956 456.421C190.956 456.614 191.048 456.766 191.232 456.876C191.42 456.987 191.681 457.042 192.015 457.042ZM192.241 453.138C192.505 453.138 192.698 453.056 192.821 452.894C192.944 452.731 193.005 452.51 193.005 452.231C193.005 451.921 192.941 451.689 192.812 451.536C192.686 451.379 192.496 451.301 192.241 451.301C191.983 451.301 191.79 451.379 191.661 451.536C191.532 451.689 191.467 451.921 191.467 452.231C191.467 452.51 191.53 452.731 191.656 452.894C191.785 453.056 191.98 453.138 192.241 453.138ZM198.705 450.449C199.254 450.449 199.696 450.599 200.031 450.9C200.366 451.198 200.533 451.677 200.533 452.337V455.693H199.129V452.687C199.129 452.318 199.061 452.04 198.926 451.853C198.794 451.666 198.585 451.572 198.3 451.572C197.87 451.572 197.577 451.718 197.42 452.01C197.264 452.301 197.186 452.722 197.186 453.271V455.693H195.781V450.546H196.854L197.043 451.204H197.121C197.232 451.026 197.368 450.882 197.531 450.771C197.697 450.661 197.879 450.579 198.079 450.527C198.281 450.475 198.49 450.449 198.705 450.449ZM210.017 448.962V453.317C210.017 453.781 209.915 454.2 209.709 454.574C209.506 454.946 209.198 455.24 208.784 455.458C208.372 455.676 207.853 455.785 207.227 455.785C206.337 455.785 205.659 455.558 205.192 455.104C204.726 454.65 204.492 454.048 204.492 453.299V448.962H205.915V453.083C205.915 453.638 206.029 454.028 206.256 454.252C206.483 454.476 206.819 454.588 207.264 454.588C207.577 454.588 207.83 454.534 208.024 454.427C208.22 454.32 208.365 454.154 208.457 453.93C208.549 453.706 208.595 453.42 208.595 453.073V448.962H210.017ZM214.419 450.449C214.999 450.449 215.467 450.675 215.823 451.126C216.182 451.577 216.362 452.238 216.362 453.11C216.362 453.693 216.278 454.184 216.109 454.584C215.94 454.979 215.707 455.279 215.409 455.481C215.111 455.684 214.769 455.785 214.382 455.785C214.134 455.785 213.92 455.755 213.742 455.693C213.564 455.629 213.412 455.547 213.286 455.449C213.161 455.348 213.052 455.24 212.959 455.127H212.886C212.91 455.25 212.929 455.375 212.941 455.504C212.953 455.633 212.959 455.759 212.959 455.882V457.958H211.555V450.546H212.697L212.895 451.213H212.959C213.052 451.075 213.164 450.948 213.296 450.831C213.428 450.714 213.586 450.622 213.77 450.555C213.957 450.484 214.173 450.449 214.419 450.449ZM213.968 451.572C213.722 451.572 213.527 451.623 213.383 451.724C213.239 451.826 213.133 451.978 213.065 452.18C213.001 452.383 212.966 452.639 212.959 452.949V453.101C212.959 453.432 212.99 453.713 213.052 453.944C213.116 454.174 213.222 454.349 213.369 454.468C213.52 454.588 213.725 454.648 213.986 454.648C214.201 454.648 214.378 454.588 214.516 454.468C214.654 454.349 214.757 454.174 214.824 453.944C214.895 453.71 214.93 453.426 214.93 453.092C214.93 452.588 214.852 452.209 214.695 451.955C214.539 451.7 214.296 451.572 213.968 451.572Z" fill="#1C1D2B"/>
<path d="M139.589 239.925L137.448 248.339H135.416L134.277 243.919C134.254 243.834 134.223 243.706 134.184 243.533C134.146 243.36 134.106 243.172 134.064 242.969C134.021 242.762 133.983 242.568 133.949 242.388C133.918 242.204 133.897 242.058 133.885 241.95C133.874 242.058 133.851 242.202 133.816 242.382C133.785 242.562 133.749 242.754 133.707 242.958C133.668 243.161 133.63 243.351 133.592 243.527C133.553 243.704 133.523 243.838 133.5 243.93L132.366 248.339H130.34L128.193 239.925H129.949L131.025 244.517C131.056 244.655 131.09 244.82 131.128 245.012C131.171 245.204 131.211 245.406 131.249 245.617C131.292 245.824 131.328 246.025 131.359 246.221C131.393 246.413 131.418 246.58 131.433 246.722C131.453 246.576 131.478 246.407 131.508 246.215C131.539 246.019 131.572 245.822 131.606 245.622C131.645 245.419 131.683 245.231 131.721 245.058C131.76 244.886 131.794 244.746 131.825 244.638L133.051 239.925H134.737L135.963 244.638C135.99 244.742 136.02 244.882 136.055 245.058C136.093 245.231 136.132 245.419 136.17 245.622C136.208 245.826 136.243 246.025 136.274 246.221C136.308 246.413 136.333 246.58 136.348 246.722C136.375 246.53 136.412 246.298 136.458 246.025C136.508 245.749 136.559 245.475 136.613 245.202C136.671 244.93 136.721 244.701 136.763 244.517L137.833 239.925H139.589ZM143.163 241.784C143.757 241.784 144.27 241.899 144.699 242.129C145.129 242.355 145.461 242.685 145.695 243.119C145.929 243.552 146.046 244.082 146.046 244.707V245.559H141.896C141.916 246.054 142.063 246.443 142.34 246.727C142.62 247.007 143.007 247.147 143.502 247.147C143.913 247.147 144.289 247.105 144.63 247.021C144.972 246.936 145.323 246.81 145.683 246.641V247.999C145.365 248.156 145.031 248.272 144.682 248.345C144.337 248.417 143.917 248.454 143.422 248.454C142.777 248.454 142.205 248.335 141.707 248.097C141.212 247.859 140.822 247.497 140.538 247.009C140.258 246.522 140.118 245.908 140.118 245.168C140.118 244.416 140.245 243.79 140.498 243.291C140.755 242.789 141.112 242.413 141.568 242.163C142.025 241.91 142.556 241.784 143.163 241.784ZM143.174 243.032C142.833 243.032 142.549 243.142 142.322 243.36C142.1 243.579 141.971 243.923 141.937 244.391H144.4C144.396 244.13 144.348 243.898 144.256 243.694C144.168 243.491 144.034 243.33 143.853 243.211C143.677 243.092 143.45 243.032 143.174 243.032ZM149.229 248.339H147.473V239.384H149.229V248.339ZM153.689 248.454C153.052 248.454 152.509 248.339 152.06 248.109C151.611 247.874 151.27 247.514 151.036 247.027C150.802 246.539 150.685 245.916 150.685 245.156C150.685 244.37 150.817 243.729 151.082 243.234C151.35 242.735 151.721 242.369 152.193 242.135C152.668 241.901 153.219 241.784 153.844 241.784C154.289 241.784 154.673 241.828 154.995 241.916C155.321 242 155.605 242.102 155.847 242.221L155.329 243.579C155.053 243.468 154.796 243.378 154.558 243.309C154.32 243.236 154.082 243.199 153.844 243.199C153.537 243.199 153.282 243.272 153.079 243.418C152.875 243.56 152.724 243.775 152.624 244.063C152.524 244.35 152.475 244.711 152.475 245.145C152.475 245.57 152.528 245.923 152.636 246.204C152.743 246.484 152.899 246.693 153.102 246.831C153.305 246.965 153.553 247.032 153.844 247.032C154.209 247.032 154.533 246.984 154.817 246.888C155.101 246.789 155.377 246.651 155.646 246.474V247.976C155.377 248.145 155.095 248.266 154.8 248.339C154.508 248.415 154.138 248.454 153.689 248.454ZM162.989 245.11C162.989 245.647 162.916 246.123 162.771 246.537C162.629 246.952 162.42 247.303 162.143 247.591C161.871 247.874 161.541 248.089 161.153 248.235C160.77 248.381 160.336 248.454 159.853 248.454C159.4 248.454 158.984 248.381 158.604 248.235C158.228 248.089 157.9 247.874 157.62 247.591C157.343 247.303 157.129 246.952 156.975 246.537C156.825 246.123 156.751 245.647 156.751 245.11C156.751 244.396 156.877 243.792 157.13 243.297C157.384 242.802 157.744 242.426 158.212 242.169C158.681 241.912 159.239 241.784 159.887 241.784C160.49 241.784 161.023 241.912 161.487 242.169C161.955 242.426 162.322 242.802 162.586 243.297C162.855 243.792 162.989 244.396 162.989 245.11ZM158.541 245.11C158.541 245.532 158.587 245.887 158.679 246.175C158.771 246.463 158.915 246.679 159.11 246.825C159.306 246.971 159.561 247.044 159.876 247.044C160.187 247.044 160.438 246.971 160.63 246.825C160.825 246.679 160.967 246.463 161.056 246.175C161.148 245.887 161.194 245.532 161.194 245.11C161.194 244.684 161.148 244.331 161.056 244.051C160.967 243.767 160.825 243.554 160.63 243.412C160.434 243.27 160.179 243.199 159.864 243.199C159.4 243.199 159.062 243.359 158.851 243.677C158.644 243.995 158.541 244.473 158.541 245.11ZM171.996 241.784C172.725 241.784 173.276 241.972 173.648 242.348C174.024 242.72 174.212 243.318 174.212 244.143V248.339H172.451V244.581C172.451 244.12 172.372 243.773 172.215 243.539C172.058 243.305 171.814 243.188 171.484 243.188C171.02 243.188 170.69 243.355 170.494 243.689C170.298 244.019 170.201 244.492 170.201 245.11V248.339H168.445V244.581C168.445 244.274 168.411 244.017 168.342 243.809C168.273 243.602 168.167 243.447 168.025 243.343C167.883 243.24 167.701 243.188 167.478 243.188C167.152 243.188 166.895 243.27 166.707 243.435C166.523 243.596 166.391 243.836 166.31 244.155C166.233 244.469 166.195 244.855 166.195 245.312V248.339H164.44V241.904H165.781L166.017 242.727H166.114C166.245 242.505 166.408 242.325 166.604 242.186C166.803 242.048 167.022 241.947 167.26 241.881C167.498 241.816 167.739 241.784 167.985 241.784C168.457 241.784 168.856 241.86 169.182 242.014C169.512 242.167 169.765 242.405 169.942 242.727H170.097C170.289 242.397 170.559 242.158 170.908 242.008C171.261 241.858 171.624 241.784 171.996 241.784ZM178.672 241.784C179.267 241.784 179.779 241.899 180.209 242.129C180.639 242.355 180.97 242.685 181.205 243.119C181.439 243.552 181.556 244.082 181.556 244.707V245.559H177.406C177.425 246.054 177.573 246.443 177.849 246.727C178.129 247.007 178.517 247.147 179.012 247.147C179.422 247.147 179.798 247.105 180.14 247.021C180.481 246.936 180.832 246.81 181.193 246.641V247.999C180.875 248.156 180.541 248.272 180.192 248.345C179.846 248.417 179.426 248.454 178.931 248.454C178.287 248.454 177.715 248.335 177.216 248.097C176.721 247.859 176.332 247.497 176.048 247.009C175.768 246.522 175.628 245.908 175.628 245.168C175.628 244.416 175.754 243.79 176.008 243.291C176.265 242.789 176.621 242.413 177.078 242.163C177.535 241.91 178.066 241.784 178.672 241.784ZM178.684 243.032C178.342 243.032 178.058 243.142 177.832 243.36C177.609 243.579 177.481 243.923 177.446 244.391H179.91C179.906 244.13 179.858 243.898 179.766 243.694C179.677 243.491 179.543 243.33 179.363 243.211C179.186 243.092 178.96 243.032 178.684 243.032Z" fill="#1C1D2B"/>
</g>
<path d="M270.92 158.873H276.724C277.034 158.873 277.283 159.122 277.283 159.431V217.219C277.283 217.528 277.034 217.777 276.724 217.777H270.92C270.611 217.777 270.362 217.528 270.362 217.219V159.431C270.362 159.122 270.611 158.873 270.92 158.873Z" fill="#3F4B5B"/>
<path d="M30.5579 146.888H36.3622C36.6714 146.888 36.9203 147.137 36.9203 147.446V183.134C36.9203 183.444 36.6713 183.692 36.3622 183.692H30.5579C30.2487 183.692 29.9998 183.444 29.9998 183.134V147.446C29.9998 147.137 30.2488 146.888 30.5579 146.888Z" fill="#3F4B5B"/>
<path d="M30.5579 194.903H36.3622C36.6714 194.903 36.9203 195.152 36.9203 195.461V231.15C36.9203 231.459 36.6713 231.708 36.3622 231.708H30.5579C30.2487 231.708 29.9998 231.459 29.9998 231.15V195.461C29.9998 195.152 30.2488 194.903 30.5579 194.903Z" fill="#3F4B5B"/>
<path d="M36.3622 110.437H30.5579C30.2496 110.437 29.9998 110.687 29.9998 110.995V129.003C29.9998 129.311 30.2496 129.561 30.5579 129.561H36.3622C36.6704 129.561 36.9203 129.311 36.9203 129.003V110.995C36.9203 110.687 36.6704 110.437 36.3622 110.437Z" fill="#3F4B5B"/>
<path d="M270.92 159.598H276.724C277.034 159.598 277.283 159.847 277.283 160.156V216.717C277.283 217.026 277.034 217.275 276.724 217.275H270.92C270.611 217.275 270.362 217.026 270.362 216.717V160.156C270.362 159.847 270.611 159.598 270.92 159.598Z" fill="url(#paint0_linear_1_121)"/>
<path d="M30.6196 147.614H36.4239C36.7331 147.614 36.982 147.863 36.982 148.172V182.632C36.982 182.942 36.733 183.19 36.4239 183.19H30.6196C30.3104 183.19 30.0615 182.942 30.0615 182.632V148.172C30.0615 147.863 30.3105 147.614 30.6196 147.614Z" fill="url(#paint1_linear_1_121)"/>
<path d="M30.5581 195.629H36.3624C36.6716 195.629 36.9205 195.878 36.9205 196.187V230.647C36.9205 230.957 36.6715 231.205 36.3624 231.205H30.5581C30.2489 231.205 30 230.957 30 230.647V196.187C30 195.878 30.249 195.629 30.5581 195.629Z" fill="url(#paint2_linear_1_121)"/>
<path d="M36.3624 111.162H30.5581C30.2499 111.162 30 111.412 30 111.72V128.501C30 128.809 30.2499 129.059 30.5581 129.059H36.3624C36.6707 129.059 36.9205 128.809 36.9205 128.501V111.72C36.9205 111.412 36.6707 111.162 36.3624 111.162Z" fill="url(#paint3_linear_1_121)"/>
<path fill-rule="evenodd" clip-rule="evenodd" d="M69.9188 10.3425H237.426C258.493 10.3425 275.572 27.421 275.572 48.4884V471.512C275.572 492.579 258.493 509.658 237.426 509.658H69.9188C48.8514 509.658 31.7729 492.579 31.7729 471.512V48.4884C31.7729 27.421 48.8514 10.3425 69.9188 10.3425ZM43.7111 47.7678C43.7114 33.3455 55.4033 21.6542 69.8256 21.6547H103.314C106.366 21.6547 107.944 21.9702 107.944 26.8112C107.944 31.6521 110.944 39.8088 121.678 39.8088H186.113C196.848 39.8088 199.847 31.6521 199.847 26.8112C199.847 21.9702 201.426 21.6547 204.478 21.6547H237.966C252.388 21.6542 264.08 33.3455 264.08 47.7678V472.741C264.081 487.164 252.389 498.855 237.966 498.854H69.8256C55.4028 498.855 43.7106 487.164 43.7111 472.741V47.7678Z" fill="#C8E1F8" stroke="#3F4B5B" stroke-width="0.680081" stroke-linecap="round" stroke-linejoin="round"/>
<g filter="url(#filter1_f_1_121)">
<path fill-rule="evenodd" clip-rule="evenodd" d="M33.1089 48.4885C33.1089 28.0731 49.5012 11.6808 69.9166 11.6808H237.428C257.843 11.6808 274.235 28.0731 274.235 48.4885V471.514C274.235 491.929 257.843 508.32 237.428 508.32H69.9166C49.5012 508.32 33.1089 491.929 33.1089 471.514V48.4885ZM43.7111 47.7681C43.7113 33.3458 55.4033 21.6545 69.8255 21.655H103.314C106.366 21.655 107.944 21.9705 107.944 26.8114C107.944 31.6524 110.944 39.8091 121.678 39.8091H186.113C196.848 39.8091 199.847 31.6524 199.847 26.8114C199.847 21.9705 201.426 21.655 204.478 21.655H237.966C252.388 21.6545 264.08 33.3458 264.08 47.7681V472.741C264.081 487.164 252.389 498.855 237.966 498.855H69.8255C55.4027 498.855 43.7106 487.164 43.7111 472.741V47.7681Z" fill="#A0B8CE"/>
</g>
<path d="M223.08 18.2005V10.0005H226.487V18.2005H223.08Z" fill="#819ABB"/>
<path d="M31.4299 63.2223V59.8152H43.7112V63.2223H31.4299Z" fill="#819ABB"/>
<path d="M43.7112 457.648H31.4299V461.055H43.7112V457.648Z" fill="#819ABB"/>
<path d="M264.081 461.055V457.648H275.915V461.055H264.081Z" fill="#819ABB"/>
<path d="M264.081 63.2223V59.8152H275.915V63.2223H264.081Z" fill="#819ABB"/>
<path d="M80.8577 510V502.94H84.2647V510H80.8577Z" fill="#819ABB"/>
<path d="M176.008 13.3169H132.646V16.7709H176.008V13.3169Z" fill="black"/>
<path fill-rule="evenodd" clip-rule="evenodd" d="M34.6006 49.4482C34.6006 29.5262 50.6386 13.4882 70.5607 13.4882H132.663C133.054 13.4883 133.43 13.6325 133.72 13.8933C134.011 14.154 134.195 14.5128 134.237 14.9008H174.427V14.8312C174.484 14.4574 174.673 14.1165 174.96 13.8702C175.247 13.6239 175.612 13.4883 175.991 13.4882H236.784C256.706 13.4882 272.744 29.5262 272.744 49.4482V470.552C272.744 490.474 256.706 506.512 236.784 506.512H70.5607C50.6386 506.512 34.6006 490.474 34.6006 470.552V49.4482ZM43.7111 47.7678C43.7114 33.3455 55.4033 21.6542 69.8256 21.6547H103.314C106.366 21.6547 107.944 21.9702 107.944 26.8112C107.944 31.6521 110.944 39.8088 121.678 39.8088H186.113C196.848 39.8088 199.847 31.6521 199.847 26.8112C199.847 21.9702 201.426 21.6547 204.478 21.6547H237.966C252.388 21.6542 264.08 33.3455 264.08 47.7678V472.741C264.081 487.164 252.389 498.855 237.966 498.854H69.8256C55.4028 498.855 43.7107 487.164 43.7111 472.741V47.7678Z" fill="black" stroke="#434343" stroke-width="0.340042"/>
<path d="M172.844 13.4882H135.811C134.937 13.4882 134.228 14.1968 134.228 15.0709V16.7668C134.228 17.6409 134.937 18.3496 135.811 18.3496H172.844C173.718 18.3496 174.426 17.6409 174.426 16.7668V15.0709C174.426 14.1968 173.718 13.4882 172.844 13.4882Z" fill="black" stroke="#1A1A1A" stroke-width="0.340042" stroke-linecap="round" stroke-linejoin="round"/>
<path d="M136.753 14.4829C135.957 14.4829 135.317 15.123 135.317 15.9184C135.317 16.7138 135.957 17.3538 136.753 17.3538H171.901C172.696 17.3538 173.336 16.7138 173.336 15.9184C173.336 15.123 172.696 14.4829 171.901 14.4829H136.753Z" stroke="#292929" stroke-width="0.104603" stroke-linecap="round"/>
<g filter="url(#filter2_f_1_121)">
<path d="M173.336 15.9181C173.336 16.1709 173.19 16.3758 173.01 16.3758C172.829 16.3758 172.683 16.1709 172.683 15.9181C172.683 15.6654 172.829 15.4604 173.01 15.4604C173.19 15.4604 173.336 15.6654 173.336 15.9181Z" fill="white"/>
<path d="M135.318 15.9183C135.318 16.171 135.464 16.376 135.645 16.3759C135.825 16.376 135.971 16.171 135.971 15.9183C135.971 15.6655 135.825 15.4606 135.645 15.4606C135.464 15.4606 135.318 15.6655 135.318 15.9183Z" fill="white"/>
</g>
<path d="M103.356 21.6553C106.408 21.6553 107.986 21.9708 107.986 26.8117C107.986 31.6527 110.986 39.8094 121.72 39.8094H186.155C196.889 39.8094 199.889 31.6527 199.889 26.8117C199.889 21.9708 201.468 21.6553 204.52 21.6553H103.356Z" fill="black"/>
<path d="M122.162 31.9243C124.327 31.9243 126.082 30.1692 126.082 28.0042C126.082 25.8392 124.327 24.0841 122.162 24.0841C119.997 24.0841 118.241 25.8392 118.241 28.0042C118.241 30.1692 119.997 31.9243 122.162 31.9243Z" fill="#161616"/>
<path d="M122.161 30.4218C123.497 30.4218 124.579 29.3392 124.579 28.0038C124.579 26.6684 123.497 25.5858 122.161 25.5858C120.826 25.5858 119.743 26.6684 119.743 28.0038C119.743 29.3392 120.826 30.4218 122.161 30.4218Z" fill="#0A0D13"/>
<path d="M122.162 29.8464C123.179 29.8464 124.004 29.0215 124.004 28.0041C124.004 26.9866 123.179 26.1617 122.162 26.1617C121.144 26.1617 120.319 26.9866 120.319 28.0041C120.319 29.0215 121.144 29.8464 122.162 29.8464Z" fill="#091427"/>
<g filter="url(#filter3_f_1_121)">
<path fill-rule="evenodd" clip-rule="evenodd" d="M120.893 26.7717C120.675 26.7947 120.364 27.1282 120.341 27.7836C120.318 28.439 120.606 28.7954 120.767 28.7954C120.928 28.7954 121.594 27.8411 120.893 26.7717H120.893Z" fill="#235A91" fill-opacity="0.556075"/>
</g>
<g filter="url(#filter4_f_1_121)">
<path fill-rule="evenodd" clip-rule="evenodd" d="M122.461 26.5416C122.117 26.6476 122.051 27.2043 122.064 27.5224C122.077 27.8405 122.528 28.6755 123.071 28.4899C123.615 28.3044 123.707 27.6152 123.482 27.1513C123.257 26.6874 122.846 26.356 122.461 26.5416Z" fill="#235A91" fill-opacity="0.556075"/>
</g>
</g>


<defs>
<filter id="filter0_d_1_121" x="-0.000244141" y="0" width="307.283" height="560" filterUnits="userSpaceOnUse" color-interpolation-filters="sRGB">
<feFlood flood-opacity="0" result="BackgroundImageFix"/>
<feColorMatrix in="SourceAlpha" type="matrix" values="0 0 0 0 0 0 0 0 0 0 0 0 0 0 0 0 0 0 127 0" result="hardAlpha"/>
<feOffset dy="20"/>
<feGaussianBlur stdDeviation="15"/>
<feComposite in2="hardAlpha" operator="out"/>
<feColorMatrix type="matrix" values="0 0 0 0 0 0 0 0 0 0 0 0 0 0 0 0 0 0 0.1 0"/>
<feBlend mode="normal" in2="BackgroundImageFix" result="effect1_dropShadow_1_121"/>
<feBlend mode="normal" in="SourceGraphic" in2="effect1_dropShadow_1_121" result="shape"/>
</filter>
<filter id="filter1_f_1_121" x="31.7915" y="10.3634" width="243.761" height="499.274" filterUnits="userSpaceOnUse" color-interpolation-filters="sRGB">
<feFlood flood-opacity="0" result="BackgroundImageFix"/>
<feBlend mode="normal" in="SourceGraphic" in2="BackgroundImageFix" result="shape"/>
<feGaussianBlur stdDeviation="0.658677" result="effect1_foregroundBlur_1_121"/>
</filter>
<filter id="filter2_f_1_121" x="132.93" y="13.073" width="42.7933" height="5.69052" filterUnits="userSpaceOnUse" color-interpolation-filters="sRGB">
<feFlood flood-opacity="0" result="BackgroundImageFix"/>
<feBlend mode="normal" in="SourceGraphic" in2="BackgroundImageFix" result="shape"/>
<feGaussianBlur stdDeviation="1.19375" result="effect1_foregroundBlur_1_121"/>
</filter>
<filter id="filter3_f_1_121" x="120.202" y="26.6338" width="1.14383" height="2.29959" filterUnits="userSpaceOnUse" color-interpolation-filters="sRGB">
<feFlood flood-opacity="0" result="BackgroundImageFix"/>
<feBlend mode="normal" in="SourceGraphic" in2="BackgroundImageFix" result="shape"/>
<feGaussianBlur stdDeviation="0.0689777" result="effect1_foregroundBlur_1_121"/>
</filter>
<filter id="filter4_f_1_121" x="121.924" y="26.3512" width="1.81009" height="2.30325" filterUnits="userSpaceOnUse" color-interpolation-filters="sRGB">
<feFlood flood-opacity="0" result="BackgroundImageFix"/>
<feBlend mode="normal" in="SourceGraphic" in2="BackgroundImageFix" result="shape"/>
<feGaussianBlur stdDeviation="0.0689777" result="effect1_foregroundBlur_1_121"/>
</filter>
<linearGradient id="paint0_linear_1_121" x1="277.283" y1="159.598" x2="277.283" y2="217.301" gradientUnits="userSpaceOnUse">
<stop stop-color="#81AACE"/>
<stop offset="0.1" stop-color="#B9D2E8"/>
<stop offset="0.9" stop-color="#B9D2E8"/>
<stop offset="1" stop-color="#81AACE"/>
</linearGradient>
<linearGradient id="paint1_linear_1_121" x1="36.982" y1="147.614" x2="36.982" y2="183.19" gradientUnits="userSpaceOnUse">
<stop stop-color="#81AACE"/>
<stop offset="0.1" stop-color="#B9D2E8"/>
<stop offset="0.9" stop-color="#B9D2E8"/>
<stop offset="1" stop-color="#81AACE"/>
</linearGradient>
<linearGradient id="paint2_linear_1_121" x1="36.9205" y1="195.629" x2="36.9205" y2="231.205" gradientUnits="userSpaceOnUse">
<stop stop-color="#81AACE"/>
<stop offset="0.1" stop-color="#B9D2E8"/>
<stop offset="0.9" stop-color="#B9D2E8"/>
<stop offset="1" stop-color="#81AACE"/>
</linearGradient>
<linearGradient id="paint3_linear_1_121" x1="36.9205" y1="111.162" x2="36.9205" y2="129.059" gradientUnits="userSpaceOnUse">
<stop stop-color="#81AACE"/>
<stop offset="0.1" stop-color="#B9D2E8"/>
<stop offset="0.9" stop-color="#B9D2E8"/>
<stop offset="1" stop-color="#81AACE"/>
</linearGradient>
<clipPath id="clip0_1_121">
<rect x="44" y="21" width="221" height="478.539" rx="23.5733" fill="white"/>
</clipPath>
<clipPath id="clip1_1_121">
<rect width="221" height="478.539" fill="white" transform="translate(44 21)"/>
</clipPath>
<clipPath id="clip2_1_121">
<rect width="148.512" height="24.1627" fill="white" transform="translate(80.5383 206.051)"/>
</clipPath>
</defs>

<!-- <text x="50" y="200" font-size="20" font-family="Arial" fill="#000000">
  <tspan x="50" dy="0">{name}</tspan>
</text> -->

</svg>
