<svg width="193" height="33" viewBox="0 0 193 33" fill="none" xmlns="http://www.w3.org/2000/svg">
<path d="M4.44313 2.6C4.91246 2.6 5.14713 2.83467 5.14713 3.304V16.072C5.14713 16.9253 5.21113 17.64 5.33913 18.216C5.48846 18.7707 5.72313 19.2187 6.04313 19.56C6.36313 19.88 6.78979 20.1147 7.32313 20.264C7.87779 20.392 8.57113 20.456 9.40313 20.456H22.3631C22.8325 20.456 23.0671 20.6907 23.0671 21.16V24.296C23.0671 24.7653 22.8325 25 22.3631 25H9.21113C7.58979 25 6.21379 24.8507 5.08313 24.552C3.95246 24.2533 3.02446 23.7733 2.29913 23.112C1.59513 22.4293 1.07246 21.5547 0.731125 20.488C0.411125 19.4 0.251125 18.088 0.251125 16.552V3.304C0.251125 2.83467 0.496458 2.6 0.987125 2.6H4.44313ZM41.9156 7.432C43.345 7.432 44.5503 7.56 45.5316 7.816C46.513 8.05067 47.2916 8.43467 47.8676 8.968C48.465 9.48 48.8916 10.152 49.1476 10.984C49.4036 11.7947 49.5316 12.776 49.5316 13.928V18.536C49.5316 19.688 49.4036 20.68 49.1476 21.512C48.8916 22.3227 48.465 22.9947 47.8676 23.528C47.2916 24.04 46.513 24.4133 45.5316 24.648C44.5503 24.8827 43.345 25 41.9156 25H32.8596C31.409 25 30.193 24.8827 29.2116 24.648C28.2516 24.4133 27.473 24.04 26.8756 23.528C26.2996 22.9947 25.8836 22.3227 25.6276 21.512C25.3716 20.68 25.2436 19.688 25.2436 18.536V13.928C25.2436 12.776 25.3716 11.7947 25.6276 10.984C25.8836 10.152 26.2996 9.48 26.8756 8.968C27.473 8.43467 28.2516 8.05067 29.2116 7.816C30.193 7.56 31.409 7.432 32.8596 7.432H41.9156ZM29.8196 17.736C29.8196 18.4187 29.873 18.984 29.9796 19.432C30.0863 19.88 30.2676 20.2427 30.5236 20.52C30.801 20.776 31.1636 20.968 31.6116 21.096C32.0596 21.2027 32.625 21.256 33.3076 21.256H41.4676C42.1716 21.256 42.7476 21.2027 43.1956 21.096C43.6436 20.968 43.9956 20.776 44.2516 20.52C44.529 20.2427 44.721 19.88 44.8276 19.432C44.9343 18.984 44.9876 18.4187 44.9876 17.736V14.696C44.9876 14.0347 44.9343 13.48 44.8276 13.032C44.721 12.584 44.529 12.2213 44.2516 11.944C43.9956 11.6667 43.6436 11.4747 43.1956 11.368C42.7476 11.2613 42.1716 11.208 41.4676 11.208H33.3076C32.625 11.208 32.0596 11.2613 31.6116 11.368C31.1636 11.4747 30.801 11.6667 30.5236 11.944C30.2676 12.2213 30.0863 12.584 29.9796 13.032C29.873 13.48 29.8196 14.0347 29.8196 14.696V17.736ZM67.5209 7.432C68.9502 7.432 70.1555 7.56 71.1369 7.816C72.1182 8.05067 72.8969 8.43467 73.4729 8.968C74.0702 9.48 74.4969 10.152 74.7529 10.984C75.0089 11.7947 75.1369 12.776 75.1369 13.928V22.44C75.1369 22.952 75.0942 23.3787 75.0089 23.72C74.9449 24.04 74.8169 24.296 74.6249 24.488C74.4542 24.68 74.2195 24.8187 73.9209 24.904C73.6222 24.968 73.2382 25 72.7689 25H57.5369C56.5982 25 55.8089 24.9147 55.1689 24.744C54.5502 24.552 54.0489 24.2747 53.6649 23.912C53.2809 23.5493 53.0035 23.08 52.8329 22.504C52.6835 21.928 52.6089 21.2453 52.6089 20.456V18.92C52.6089 18.2587 52.6835 17.672 52.8329 17.16C53.0035 16.6267 53.2809 16.1787 53.6649 15.816C54.0489 15.4533 54.5502 15.1867 55.1689 15.016C55.8089 14.824 56.5982 14.728 57.5369 14.728H70.5609V14.12C70.5609 13.608 70.5075 13.1707 70.4009 12.808C70.2942 12.4453 70.1129 12.1573 69.8569 11.944C69.6009 11.7093 69.2489 11.5387 68.8009 11.432C68.3529 11.3253 67.7769 11.272 67.0729 11.272H53.6969C53.3129 11.272 53.1209 11.08 53.1209 10.696V8.008C53.1209 7.624 53.3129 7.432 53.6969 7.432H67.5209ZM69.6329 21.48C69.9742 21.48 70.2089 21.4053 70.3369 21.256C70.4862 21.0853 70.5609 20.7973 70.5609 20.392V17.576H58.8489C58.1875 17.576 57.7182 17.7147 57.4409 17.992C57.1849 18.248 57.0569 18.632 57.0569 19.144V19.816C57.0569 20.392 57.1849 20.8187 57.4409 21.096C57.7182 21.352 58.1875 21.48 58.8489 21.48H69.6329ZM97.9229 7.432V1.704C97.9229 1.23466 98.1575 0.999998 98.6269 0.999998H101.763C102.232 0.999998 102.467 1.23466 102.467 1.704V18.536C102.467 19.688 102.339 20.68 102.083 21.512C101.827 22.3227 101.4 22.9947 100.803 23.528C100.227 24.04 99.4482 24.4133 98.4669 24.648C97.4855 24.8827 96.2802 25 94.8509 25H85.8909C84.4402 25 83.2242 24.8827 82.2429 24.648C81.2829 24.4133 80.5042 24.04 79.9069 23.528C79.3309 22.9947 78.9149 22.3227 78.6589 21.512C78.4029 20.68 78.2749 19.688 78.2749 18.536V13.928C78.2749 12.776 78.4029 11.7947 78.6589 10.984C78.9149 10.152 79.3309 9.48 79.9069 8.968C80.5042 8.43467 81.2829 8.05067 82.2429 7.816C83.2242 7.56 84.4402 7.432 85.8909 7.432H97.9229ZM94.4029 21.16C95.1069 21.16 95.6829 21.1067 96.1309 21C96.5789 20.872 96.9309 20.68 97.1869 20.424C97.4642 20.1467 97.6562 19.784 97.7629 19.336C97.8695 18.888 97.9229 18.3227 97.9229 17.64V11.272H86.3389C85.6562 11.272 85.0909 11.336 84.6429 11.464C84.1949 11.5707 83.8322 11.7627 83.5549 12.04C83.2989 12.296 83.1175 12.6587 83.0109 13.128C82.9042 13.576 82.8509 14.1307 82.8509 14.792V17.64C82.8509 18.3227 82.9042 18.888 83.0109 19.336C83.1175 19.784 83.2989 20.1467 83.5549 20.424C83.8322 20.68 84.1949 20.872 84.6429 21C85.0909 21.1067 85.6562 21.16 86.3389 21.16H94.4029ZM110.31 7.432C110.779 7.432 111.014 7.67733 111.014 8.168V24.296C111.014 24.7653 110.779 25 110.31 25H107.174C106.705 25 106.47 24.7653 106.47 24.296V8.168C106.47 7.67733 106.705 7.432 107.174 7.432H110.31ZM110.31 0.935999C110.779 0.935999 111.014 1.17067 111.014 1.64V4.68C111.014 5.17067 110.779 5.416 110.31 5.416H107.174C106.683 5.416 106.438 5.17067 106.438 4.68V1.64C106.438 1.17067 106.683 0.935999 107.174 0.935999H110.31ZM131.767 7.432C133.196 7.432 134.402 7.56 135.383 7.816C136.364 8.05067 137.143 8.43467 137.719 8.968C138.316 9.48 138.743 10.152 138.999 10.984C139.255 11.7947 139.383 12.776 139.383 13.928V24.296C139.383 24.7653 139.148 25 138.679 25H135.543C135.074 25 134.839 24.7653 134.839 24.296V15.016C134.839 14.3547 134.796 13.8 134.711 13.352C134.626 12.8827 134.455 12.52 134.199 12.264C133.964 11.9867 133.634 11.7947 133.207 11.688C132.78 11.56 132.226 11.496 131.543 11.496H123.031C122.348 11.496 121.783 11.56 121.335 11.688C120.887 11.7947 120.524 11.9867 120.247 12.264C119.991 12.52 119.81 12.8827 119.703 13.352C119.596 13.8 119.543 14.3547 119.543 15.016V24.296C119.543 24.7653 119.308 25 118.839 25H115.703C115.212 25 114.967 24.7653 114.967 24.296V13.928C114.967 12.776 115.095 11.7947 115.351 10.984C115.607 10.152 116.023 9.48 116.599 8.968C117.196 8.43467 117.975 8.05067 118.935 7.816C119.916 7.56 121.132 7.432 122.583 7.432H131.767ZM159.632 7.432C161.083 7.432 162.288 7.56 163.248 7.816C164.229 8.05067 165.019 8.424 165.616 8.936C166.213 9.448 166.629 10.12 166.864 10.952C167.12 11.7627 167.248 12.744 167.248 13.896V25.544C167.248 26.7173 167.12 27.7093 166.864 28.52C166.629 29.352 166.213 30.024 165.616 30.536C165.019 31.0693 164.229 31.4533 163.248 31.688C162.288 31.944 161.083 32.072 159.632 32.072H144.56C144.176 32.072 143.984 31.88 143.984 31.496V28.808C143.984 28.424 144.176 28.232 144.56 28.232H159.184C159.888 28.232 160.464 28.168 160.912 28.04C161.36 27.9333 161.712 27.7413 161.968 27.464C162.245 27.208 162.437 26.8453 162.544 26.376C162.651 25.928 162.704 25.3627 162.704 24.68V23.848H150.672C149.221 23.848 148.005 23.7307 147.024 23.496C146.064 23.24 145.285 22.856 144.688 22.344C144.112 21.8107 143.696 21.1387 143.44 20.328C143.184 19.496 143.056 18.4933 143.056 17.32V13.96C143.056 12.7867 143.184 11.7947 143.44 10.984C143.696 10.152 144.112 9.48 144.688 8.968C145.285 8.43467 146.064 8.05067 147.024 7.816C148.005 7.56 149.221 7.432 150.672 7.432H159.632ZM147.632 17.288C147.632 17.8427 147.685 18.312 147.792 18.696C147.899 19.0587 148.08 19.368 148.336 19.624C148.613 19.8587 148.976 20.0293 149.424 20.136C149.872 20.2427 150.437 20.296 151.12 20.296H162.704V14.312C162.704 13.1813 162.459 12.3813 161.968 11.912C161.499 11.4427 160.571 11.208 159.184 11.208H151.12C150.437 11.208 149.872 11.2613 149.424 11.368C148.976 11.4747 148.613 11.656 148.336 11.912C148.08 12.1467 147.899 12.456 147.792 12.84C147.685 13.224 147.632 13.6827 147.632 14.216V17.288ZM175.059 20.52C175.528 20.52 175.763 20.7547 175.763 21.224V24.296C175.763 24.7653 175.528 25 175.059 25H171.923C171.432 25 171.187 24.7653 171.187 24.296V21.224C171.187 20.7547 171.432 20.52 171.923 20.52H175.059ZM183.59 20.52C184.06 20.52 184.294 20.7547 184.294 21.224V24.296C184.294 24.7653 184.06 25 183.59 25H180.454C179.964 25 179.718 24.7653 179.718 24.296V21.224C179.718 20.7547 179.964 20.52 180.454 20.52H183.59ZM192.122 20.52C192.591 20.52 192.826 20.7547 192.826 21.224V24.296C192.826 24.7653 192.591 25 192.122 25H188.986C188.495 25 188.25 24.7653 188.25 24.296V21.224C188.25 20.7547 188.495 20.52 188.986 20.52H192.122Z" fill="#1D1D33"/>
</svg>
